<?xml version="1.0" encoding="UTF-8" standalone="no"?>
<svg
   xmlns:dc="http://purl.org/dc/elements/1.1/"
   xmlns:cc="http://creativecommons.org/ns#"
   xmlns:rdf="http://www.w3.org/1999/02/22-rdf-syntax-ns#"
   xmlns:svg="http://www.w3.org/2000/svg"
   xmlns="http://www.w3.org/2000/svg"
   xmlns:xlink="http://www.w3.org/1999/xlink"
   xmlns:sodipodi="http://sodipodi.sourceforge.net/DTD/sodipodi-0.dtd"
   xmlns:inkscape="http://www.inkscape.org/namespaces/inkscape"
   id="Capa_1"
   enable-background="new 0 0 512 512"
   height="200"
   viewBox="0 0 200 200"
   width="200"
   version="1.1"
   sodipodi:docname="coupon.svg"
   inkscape:version="0.92.4 (5da689c313, 2019-01-14)">
  <metadata
     id="metadata17">
    <rdf:RDF>
      <cc:Work
         rdf:about="">
        <dc:format>image/svg+xml</dc:format>
        <dc:type
           rdf:resource="http://purl.org/dc/dcmitype/StillImage" />
        <dc:title />
      </cc:Work>
    </rdf:RDF>
  </metadata>
  <defs
     id="defs15">
    <linearGradient
       id="linearGradient846"
       inkscape:collect="always">
      <stop
         id="stop842"
         offset="0"
         style="stop-color:#c40761;stop-opacity:1" />
      <stop
         id="stop844"
         offset="1"
         style="stop-color:#fbc641;stop-opacity:1" />
    </linearGradient>
    <linearGradient
       id="linearGradient840"
       inkscape:collect="always">
      <stop
         id="stop836"
         offset="0"
         style="stop-color:#c40761;stop-opacity:1" />
      <stop
         id="stop838"
         offset="1"
         style="stop-color:#fbc641;stop-opacity:1" />
    </linearGradient>
    <linearGradient
       inkscape:collect="always"
       id="linearGradient828">
      <stop
         style="stop-color:#c40761;stop-opacity:1"
         offset="0"
         id="stop824" />
      <stop
         style="stop-color:#fbc641;stop-opacity:1"
         offset="1"
         id="stop826" />
    </linearGradient>
    <linearGradient
       inkscape:collect="always"
       xlink:href="#linearGradient828"
       id="linearGradient830"
       x1="45.016949"
       y1="462.10175"
       x2="193.62711"
       y2="329.22031"
       gradientUnits="userSpaceOnUse" />
    <linearGradient
       inkscape:collect="always"
       xlink:href="#linearGradient846"
       id="linearGradient832"
       x1="45.016949"
       y1="462.10175"
       x2="193.62711"
       y2="329.22031"
       gradientUnits="userSpaceOnUse" />
    <linearGradient
       inkscape:collect="always"
       xlink:href="#linearGradient840"
       id="linearGradient834"
       x1="45.016949"
       y1="462.10175"
       x2="193.62711"
       y2="329.22031"
       gradientUnits="userSpaceOnUse" />
  </defs>
  <sodipodi:namedview
     pagecolor="#ffffff"
     bordercolor="#666666"
     borderopacity="1"
     objecttolerance="10"
     gridtolerance="10"
     guidetolerance="10"
     inkscape:pageopacity="0"
     inkscape:pageshadow="2"
     inkscape:window-width="2400"
     inkscape:window-height="1421"
     id="namedview13"
     showgrid="false"
     inkscape:zoom="1.84375"
     inkscape:cx="-46.544866"
     inkscape:cy="48.75404"
     inkscape:window-x="2391"
     inkscape:window-y="-9"
     inkscape:window-maximized="1"
     inkscape:current-layer="g10" />
  <g
     id="g10"
     transform="translate(0,-312)">
    <path
       d="m 110.4869,361.71393 c -2.47694,-2.95277 -7.82024,-2.71693 -11.665772,0.50891 -3.848691,3.22848 -5.010569,8.44901 -2.533366,11.40208 2.476936,2.95277 7.822618,2.71977 11.671318,-0.50871 3.84552,-3.22585 5.00476,-8.44952 2.52782,-11.40228 z"
       id="path2"
       inkscape:connector-curvature="0"
       style="stroke-width:0.41176221;fill-opacity:1;fill:url(#linearGradient830)" />
    <path
       d="m 113.00504,440.95251 c -2.47694,-2.95277 -7.82024,-2.71693 -11.66893,0.51155 -3.845533,3.22585 -5.007411,8.44636 -2.530212,11.39945 2.476942,2.95276 7.822892,2.72008 11.668422,-0.50576 3.84869,-3.22848 5.00766,-8.45248 2.53072,-11.40524 z"
       id="path4"
       inkscape:connector-curvature="0"
       style="stroke-width:0.41176221;fill-opacity:1;fill:url(#linearGradient832)" />
    <path
       d="m 196.46976,423.65811 c 3.89997,-85.00887 4.27237,-81.14041 2.55447,-86.19768 -2.39693,-7.22438 -8.93187,-12.73126 -16.76778,-13.74852 L 104.12972,313.5793 c -8.782551,-1.14113 -17.721854,1.47757 -24.529617,7.18828 L 7.2289741,381.47639 c -8.5270541,7.15295 -9.6769408,19.87753 -2.5610369,28.36042 l 79.7089778,95.0213 c 7.116168,8.4832 19.846545,9.56374 28.373585,2.41079 l 72.37113,-60.7088 c 6.80803,-5.71041 10.94139,-14.05829 11.34813,-22.90199 z M 161.973,351.02489 c 2.99079,-2.02028 7.05981,-1.13614 8.89754,2.13033 1.70138,3.17124 0.38665,6.86408 -2.44749,8.38427 -3.01833,1.62096 -6.68315,0.5767 -8.38426,-2.44748 -1.57271,-2.93198 -0.58341,-6.35668 1.93421,-8.06712 z m -71.091042,1.73365 c 9.132752,-7.66104 22.172402,-7.20488 29.068932,1.01648 6.89917,8.22452 5.0801,21.14445 -4.05265,28.80549 -9.13275,7.66104 -22.175559,7.20752 -29.07447,-1.01668 -6.896522,-8.22137 -5.074561,-21.14425 4.058188,-28.80529 z m -27.611014,69.37873 c -2.80508,-3.34393 -1.334323,-8.55376 2.907668,-9.8667 l 74.227578,-23.02024 c 3.25962,-1.00912 6.7214,0.81115 7.73054,4.07078 1.01227,3.25697 -0.81381,6.71825 -4.07078,7.73053 l -74.230235,23.01709 c -2.448533,0.75871 -5.01139,-0.0797 -6.564771,-1.93146 z m 26.070966,38.66514 c -6.896527,-8.22136 -5.077452,-21.14129 4.055298,-28.80233 9.132752,-7.66104 22.175562,-7.20753 29.071812,1.01352 6.89653,8.22137 5.07695,21.1471 -4.05579,28.80814 -9.13275,7.66105 -22.174793,7.20204 -29.07132,-1.01933 z"
       id="path6"
       inkscape:connector-curvature="0"
       style="stroke-width:0.41176221;fill-opacity:1;fill:url(#linearGradient834)" />
  </g>
</svg>
