<?xml version="1.0" encoding="UTF-8" standalone="no"?>
<!-- Generator: Adobe Illustrator 19.0.0, SVG Export Plug-In . SVG Version: 6.00 Build 0)  -->

<svg
   xmlns:dc="http://purl.org/dc/elements/1.1/"
   xmlns:cc="http://creativecommons.org/ns#"
   xmlns:rdf="http://www.w3.org/1999/02/22-rdf-syntax-ns#"
   xmlns:svg="http://www.w3.org/2000/svg"
   xmlns="http://www.w3.org/2000/svg"
   xmlns:xlink="http://www.w3.org/1999/xlink"
   xmlns:sodipodi="http://sodipodi.sourceforge.net/DTD/sodipodi-0.dtd"
   xmlns:inkscape="http://www.inkscape.org/namespaces/inkscape"
   version="1.1"
   id="Capa_1"
   x="0px"
   y="0px"
   viewBox="0 0 512 512"
   style="enable-background:new 0 0 512 512;"
   xml:space="preserve"
   sodipodi:docname="group.svg"
   inkscape:version="0.92.4 (5da689c313, 2019-01-14)"><metadata
   id="metadata61"><rdf:RDF><cc:Work
       rdf:about=""><dc:format>image/svg+xml</dc:format><dc:type
         rdf:resource="http://purl.org/dc/dcmitype/StillImage" /></cc:Work></rdf:RDF></metadata><defs
   id="defs59"><linearGradient
     id="linearGradient925"
     inkscape:collect="always"><stop
       id="stop921"
       offset="0"
       style="stop-color:#8edc7d;stop-opacity:1" /><stop
       id="stop923"
       offset="1"
       style="stop-color:#ffa600;stop-opacity:1" /></linearGradient><linearGradient
     id="linearGradient919"
     inkscape:collect="always"><stop
       id="stop915"
       offset="0"
       style="stop-color:#8edc7d;stop-opacity:1" /><stop
       id="stop917"
       offset="1"
       style="stop-color:#ffa600;stop-opacity:1" /></linearGradient><linearGradient
     id="linearGradient913"
     inkscape:collect="always"><stop
       id="stop909"
       offset="0"
       style="stop-color:#8edc7d;stop-opacity:1" /><stop
       id="stop911"
       offset="1"
       style="stop-color:#ffa600;stop-opacity:1" /></linearGradient><linearGradient
     inkscape:collect="always"
     id="linearGradient899"><stop
       style="stop-color:#8edc7d;stop-opacity:1"
       offset="0"
       id="stop895" /><stop
       style="stop-color:#ffa600;stop-opacity:1"
       offset="1"
       id="stop897" /></linearGradient><linearGradient
     inkscape:collect="always"
     xlink:href="#linearGradient899"
     id="linearGradient901"
     x1="0"
     y1="454.858"
     x2="446.11557"
     y2="72.689171"
     gradientUnits="userSpaceOnUse" /><linearGradient
     inkscape:collect="always"
     xlink:href="#linearGradient925"
     id="linearGradient903"
     x1="0"
     y1="454.858"
     x2="446.11557"
     y2="72.689171"
     gradientUnits="userSpaceOnUse" /><linearGradient
     inkscape:collect="always"
     xlink:href="#linearGradient919"
     id="linearGradient905"
     x1="0"
     y1="454.858"
     x2="446.11557"
     y2="72.689171"
     gradientUnits="userSpaceOnUse" /><linearGradient
     inkscape:collect="always"
     xlink:href="#linearGradient913"
     id="linearGradient907"
     x1="0"
     y1="454.858"
     x2="446.11557"
     y2="72.689171"
     gradientUnits="userSpaceOnUse" /></defs><sodipodi:namedview
   pagecolor="#ffffff"
   bordercolor="#666666"
   borderopacity="1"
   objecttolerance="10"
   gridtolerance="10"
   guidetolerance="10"
   inkscape:pageopacity="0"
   inkscape:pageshadow="2"
   inkscape:window-width="1920"
   inkscape:window-height="1001"
   id="namedview57"
   showgrid="false"
   inkscape:zoom="0.921875"
   inkscape:cx="-26.939226"
   inkscape:cy="275.54674"
   inkscape:window-x="-9"
   inkscape:window-y="130"
   inkscape:window-maximized="1"
   inkscape:current-layer="Capa_1" />
<g
   id="g6">
	<g
   id="g4">
		<path
   d="M155.327,57.142c-51.531,0-93.454,44.45-93.454,99.086c0,54.636,41.923,99.086,93.454,99.086s93.455-44.45,93.455-99.086    C248.782,101.592,206.859,57.142,155.327,57.142z"
   id="path2"
   style="fill-opacity:1;fill:url(#linearGradient905)" />
	</g>
</g>
<g
   id="g12">
	<g
   id="g10">
		<path
   d="M367.798,71.321c-0.211,0-0.425,0.001-0.636,0.002c-21.626,0.179-41.826,9.31-56.878,25.713    c-14.788,16.113-22.829,37.37-22.644,59.854c0.186,22.484,8.577,43.605,23.628,59.473c15.17,15.991,35.265,24.773,56.651,24.773    c0.215,0,0.43-0.001,0.646-0.002c21.626-0.179,41.826-9.311,56.878-25.713c14.788-16.113,22.829-37.37,22.644-59.855    C447.702,108.972,411.747,71.321,367.798,71.321z"
   id="path8"
   style="fill-opacity:1;fill:url(#linearGradient907)" />
	</g>
</g>
<g
   id="g18">
	<g
   id="g16">
		<path
   d="M371.74,257.358h-7.76c-36.14,0-69.12,13.74-94.02,36.26c6.23,4.78,12.16,9.99,17.78,15.61    c16.58,16.58,29.6,35.9,38.7,57.42c8.2,19.38,12.88,39.8,13.97,60.83H512v-29.87C512,320.278,449.08,257.358,371.74,257.358z"
   id="path14"
   style="fill-opacity:1;fill:url(#linearGradient901)" />
	</g>
</g>
<g
   id="g24">
	<g
   id="g22">
		<path
   d="M310.35,427.478c-2.83-45.59-25.94-85.69-60.43-111.39c-25.09-18.7-56.21-29.77-89.92-29.77h-9.34    C67.45,286.319,0,353.768,0,436.978v17.88h310.65v-17.88C310.65,433.788,310.55,430.618,310.35,427.478z"
   id="path20"
   style="fill-opacity:1;fill:url(#linearGradient903)" />
	</g>
</g>
<g
   id="g26">
</g>
<g
   id="g28">
</g>
<g
   id="g30">
</g>
<g
   id="g32">
</g>
<g
   id="g34">
</g>
<g
   id="g36">
</g>
<g
   id="g38">
</g>
<g
   id="g40">
</g>
<g
   id="g42">
</g>
<g
   id="g44">
</g>
<g
   id="g46">
</g>
<g
   id="g48">
</g>
<g
   id="g50">
</g>
<g
   id="g52">
</g>
<g
   id="g54">
</g>
</svg>