<?xml version="1.0" encoding="UTF-8" standalone="no"?>
<!-- Created with Inkscape (http://www.inkscape.org/) -->

<svg
   xmlns:dc="http://purl.org/dc/elements/1.1/"
   xmlns:cc="http://creativecommons.org/ns#"
   xmlns:rdf="http://www.w3.org/1999/02/22-rdf-syntax-ns#"
   xmlns:svg="http://www.w3.org/2000/svg"
   xmlns="http://www.w3.org/2000/svg"
   xmlns:xlink="http://www.w3.org/1999/xlink"
   xmlns:sodipodi="http://sodipodi.sourceforge.net/DTD/sodipodi-0.dtd"
   xmlns:inkscape="http://www.inkscape.org/namespaces/inkscape"
   width="200"
   height="200"
   viewBox="0 0 52.916665 52.916668"
   version="1.1"
   id="svg8"
   inkscape:version="0.92.4 (5da689c313, 2019-01-14)"
   sodipodi:docname="logout.svg">
  <defs
     id="defs2">
    <linearGradient
       inkscape:collect="always"
       id="linearGradient916">
      <stop
         style="stop-color:#4e0054;stop-opacity:1"
         offset="0"
         id="stop912" />
      <stop
         style="stop-color:#f03635;stop-opacity:1"
         offset="1"
         id="stop914" />
    </linearGradient>
    <linearGradient
       inkscape:collect="always"
       xlink:href="#linearGradient916"
       id="linearGradient918"
       x1="0.014"
       y1="256.0005"
       x2="511.9865"
       y2="256.0005"
       gradientUnits="userSpaceOnUse" />
  </defs>
  <sodipodi:namedview
     id="base"
     pagecolor="#ffffff"
     bordercolor="#666666"
     borderopacity="1.0"
     inkscape:pageopacity="0.0"
     inkscape:pageshadow="2"
     inkscape:zoom="2.56"
     inkscape:cx="119.31371"
     inkscape:cy="124.74781"
     inkscape:document-units="mm"
     inkscape:current-layer="g894"
     showgrid="false"
     units="px"
     inkscape:window-width="1920"
     inkscape:window-height="1001"
     inkscape:window-x="-9"
     inkscape:window-y="130"
     inkscape:window-maximized="1" />
  <metadata
     id="metadata5">
    <rdf:RDF>
      <cc:Work
         rdf:about="">
        <dc:format>image/svg+xml</dc:format>
        <dc:type
           rdf:resource="http://purl.org/dc/dcmitype/StillImage" />
        <dc:title></dc:title>
      </cc:Work>
    </rdf:RDF>
  </metadata>
  <g
     inkscape:label="Ebene 1"
     inkscape:groupmode="layer"
     id="layer1"
     transform="translate(0,-244.08332)">
    <g
       id="g825"
       transform="matrix(0.39064594,0,0,0.52083232,19.481641,101.5081)">
      <g
         id="g894"
         transform="matrix(0.26458336,0,0,0.1984375,-49.874033,273.74496)"
         style="fill-opacity:1;fill:url(#linearGradient918)">
        <g
           id="g835"
           style="fill-opacity:1;fill:#232b43">
	<g
   id="g833"
   style="fill-opacity:1;fill:#232b43">
		<g
   id="g831"
   style="fill-opacity:1;fill:#232b43">
			<path
   id="path827"
   d="m 510.371,226.513 c -1.088,-2.603 -2.645,-4.971 -4.629,-6.955 l -63.979,-63.979 c -8.341,-8.32 -21.824,-8.32 -30.165,0 -8.341,8.341 -8.341,21.845 0,30.165 l 27.584,27.584 H 320.013 c -11.797,0 -21.333,9.557 -21.333,21.333 0,11.776 9.536,21.333 21.333,21.333 h 119.168 l -27.584,27.584 c -8.341,8.341 -8.341,21.845 0,30.165 4.16,4.181 9.621,6.251 15.083,6.251 5.462,0 10.923,-2.069 15.083,-6.251 l 63.979,-63.979 c 1.984,-1.963 3.541,-4.331 4.629,-6.955 2.154,-5.203 2.154,-11.091 0,-16.296 z"
   inkscape:connector-curvature="0"
   style="fill-opacity:1;fill:#232b43" />

			<path
   id="path829"
   d="m 362.68,298.667 c -11.797,0 -21.333,9.557 -21.333,21.333 V 426.667 H 256.014 V 85.333 c 0,-9.408 -6.187,-17.728 -15.211,-20.437 L 166.712,42.667 h 174.635 v 106.667 c 0,11.776 9.536,21.333 21.333,21.333 11.797,0 21.333,-9.557 21.333,-21.333 v -128 C 384.013,9.557 374.477,0 362.68,0 H 21.347 C 20.579,0 19.896,0.32 19.15,0.405 18.147,0.512 17.23,0.682 16.27,0.917 14.03,1.493 12.003,2.368 10.105,3.562 9.636,3.861 9.06,3.882 8.612,4.223 8.44,4.352 8.376,4.587 8.205,4.715 5.88,6.549 3.939,8.789 2.531,11.456 c -0.299,0.576 -0.363,1.195 -0.597,1.792 -0.683,1.621 -1.429,3.2 -1.685,4.992 -0.107,0.64 0.085,1.237 0.064,1.856 -0.021,0.427 -0.299,0.811 -0.299,1.237 V 448 c 0,10.176 7.189,18.923 17.152,20.907 l 213.333,42.667 c 1.387,0.299 2.795,0.427 4.181,0.427 4.885,0 9.685,-1.685 13.525,-4.843 4.928,-4.053 7.808,-10.091 7.808,-16.491 V 469.334 H 362.68 c 11.797,0 21.333,-9.557 21.333,-21.333 V 320 c 0,-11.776 -9.536,-21.333 -21.333,-21.333 z"
   inkscape:connector-curvature="0"
   style="fill-opacity:1;fill:#232b43" />

		</g>

	</g>

</g>
        <g
           id="g837"
           style="fill-opacity:1;fill:url(#linearGradient918)">
</g>
        <g
           id="g839"
           style="fill-opacity:1;fill:url(#linearGradient918)">
</g>
        <g
           id="g841"
           style="fill-opacity:1;fill:url(#linearGradient918)">
</g>
        <g
           id="g843"
           style="fill-opacity:1;fill:url(#linearGradient918)">
</g>
        <g
           id="g845"
           style="fill-opacity:1;fill:url(#linearGradient918)">
</g>
        <g
           id="g847"
           style="fill-opacity:1;fill:url(#linearGradient918)">
</g>
        <g
           id="g849"
           style="fill-opacity:1;fill:url(#linearGradient918)">
</g>
        <g
           id="g851"
           style="fill-opacity:1;fill:url(#linearGradient918)">
</g>
        <g
           id="g853"
           style="fill-opacity:1;fill:url(#linearGradient918)">
</g>
        <g
           id="g855"
           style="fill-opacity:1;fill:url(#linearGradient918)">
</g>
        <g
           id="g857"
           style="fill-opacity:1;fill:url(#linearGradient918)">
</g>
        <g
           id="g859"
           style="fill-opacity:1;fill:url(#linearGradient918)">
</g>
        <g
           id="g861"
           style="fill-opacity:1;fill:url(#linearGradient918)">
</g>
        <g
           id="g863"
           style="fill-opacity:1;fill:url(#linearGradient918)">
</g>
        <g
           id="g865"
           style="fill-opacity:1;fill:url(#linearGradient918)">
</g>
      </g>
    </g>
  </g>
</svg>
