<?xml version="1.0" encoding="UTF-8" standalone="no"?>
<!-- Created with Inkscape (http://www.inkscape.org/) -->

<svg
   xmlns:dc="http://purl.org/dc/elements/1.1/"
   xmlns:cc="http://creativecommons.org/ns#"
   xmlns:rdf="http://www.w3.org/1999/02/22-rdf-syntax-ns#"
   xmlns:svg="http://www.w3.org/2000/svg"
   xmlns="http://www.w3.org/2000/svg"
   xmlns:sodipodi="http://sodipodi.sourceforge.net/DTD/sodipodi-0.dtd"
   xmlns:inkscape="http://www.inkscape.org/namespaces/inkscape"
   width="200"
   height="137"
   viewBox="0 0 52.916665 36.247918"
   version="1.1"
   id="svg8"
   inkscape:version="0.92.4 (5da689c313, 2019-01-14)"
   sodipodi:docname="payment.svg">
  <defs
     id="defs2" />
  <sodipodi:namedview
     id="base"
     pagecolor="#ffffff"
     bordercolor="#666666"
     borderopacity="1.0"
     inkscape:pageopacity="0.0"
     inkscape:pageshadow="2"
     inkscape:zoom="5.6568543"
     inkscape:cx="200.19237"
     inkscape:cy="114.26409"
     inkscape:document-units="mm"
     inkscape:current-layer="layer1"
     showgrid="false"
     units="px"
     inkscape:window-width="1920"
     inkscape:window-height="1001"
     inkscape:window-x="-9"
     inkscape:window-y="130"
     inkscape:window-maximized="1" />
  <metadata
     id="metadata5">
    <rdf:RDF>
      <cc:Work
         rdf:about="">
        <dc:format>image/svg+xml</dc:format>
        <dc:type
           rdf:resource="http://purl.org/dc/dcmitype/StillImage" />
        <dc:title />
      </cc:Work>
    </rdf:RDF>
  </metadata>
  <g
     inkscape:label="Ebene 1"
     inkscape:groupmode="layer"
     id="layer1"
     transform="translate(0,-260.75207)">
    <g
       id="g897"
       transform="matrix(0.08009847,0,0,0.08038352,0,254.3217)"
       style="fill:#232b43;fill-opacity:1">
      <path
         id="path893"
         d="M 456,80 H 56 C 25.122,80 0,105.122 0,136 v 240 c 0,30.878 25.122,56 56,56 h 400 c 30.878,0 56,-25.122 56,-56 V 136 c 0,-30.878 -25.122,-56 -56,-56 z m 24,88 H 32 v -32 c 0,-13.233 10.767,-24 24,-24 h 400 c 13.233,0 24,10.767 24,24 v 32 M 456,400 H 56 C 42.767,400 32,389.233 32,376 V 200 h 448 v 176 c 0,13.233 -10.767,24 -24,24 z"
         inkscape:connector-curvature="0"
         style="fill:#232b43;fill-opacity:1"
         sodipodi:nodetypes="sssssssssccsssscsssccss" />
      <path
         id="path895"
         d="M 112,352 H 96 c -8.836,0 -16,-7.164 -16,-16 v -16 c 0,-8.836 7.164,-16 16,-16 h 16 c 8.836,0 16,7.164 16,16 v 16 c 0,8.836 -7.164,16 -16,16 z"
         inkscape:connector-curvature="0"
         style="fill:#232b43;fill-opacity:1" />
    </g>
    <g
       transform="matrix(0.18657089,0,0,0.18657089,15.65547,241.64115)"
       id="layer1-2"
       inkscape:label="Ebene 1"
       style="fill:#ffffff;fill-opacity:1">
      <path
         d="m 7.2825604,184.28258 92.6978996,52.70971 92.73698,-52.70971 z m 4e-7,0 H 192.71744 V 289.71745 H 7.2825608 Z"
         style="fill:#ffffff;fill-opacity:0.01171875;stroke:#232b42;stroke-width:14;stroke-linecap:butt;stroke-linejoin:round;stroke-miterlimit:4;stroke-dasharray:none;stroke-opacity:1"
         id="path4546"
         inkscape:connector-curvature="0" />
    </g>
  </g>
</svg>
