<?xml version="1.0" encoding="UTF-8" standalone="no"?>
<svg
   xmlns:dc="http://purl.org/dc/elements/1.1/"
   xmlns:cc="http://creativecommons.org/ns#"
   xmlns:rdf="http://www.w3.org/1999/02/22-rdf-syntax-ns#"
   xmlns:svg="http://www.w3.org/2000/svg"
   xmlns="http://www.w3.org/2000/svg"
   xmlns:sodipodi="http://sodipodi.sourceforge.net/DTD/sodipodi-0.dtd"
   xmlns:inkscape="http://www.inkscape.org/namespaces/inkscape"
   id="Capa_1"
   enable-background="new 0 0 510 510"
   height="512"
   viewBox="0 0 510 510"
   width="512"
   version="1.1"
   sodipodi:docname="payment_confirm.svg"
   inkscape:version="0.92.4 (5da689c313, 2019-01-14)">
  <metadata
     id="metadata23">
    <rdf:RDF>
      <cc:Work
         rdf:about="">
        <dc:format>image/svg+xml</dc:format>
        <dc:type
           rdf:resource="http://purl.org/dc/dcmitype/StillImage" />
      </cc:Work>
    </rdf:RDF>
  </metadata>
  <defs
     id="defs21" />
  <sodipodi:namedview
     pagecolor="#ffffff"
     bordercolor="#666666"
     borderopacity="1"
     objecttolerance="10"
     gridtolerance="10"
     guidetolerance="10"
     inkscape:pageopacity="0"
     inkscape:pageshadow="2"
     inkscape:window-width="1920"
     inkscape:window-height="1017"
     id="namedview19"
     showgrid="false"
     inkscape:zoom="0.4609375"
     inkscape:cx="256"
     inkscape:cy="256"
     inkscape:window-x="-8"
     inkscape:window-y="-8"
     inkscape:window-maximized="1"
     inkscape:current-layer="Capa_1" />
  <g
     id="g16"
     style="stroke:#232b43;stroke-opacity:1;fill:#232b43;fill-opacity:1">
    <path
       d="m486.193 357.442c-.322-.569-.686-1.121-1.089-1.653-11.382-16.879-27.827-30.071-47.137-37.393v-255.396c0-34.738-28.262-63-63-63h-304c-34.738 0-63 28.262-63 63v65c0 16.542 13.458 30 30 30h66v274c0 16.542 13.458 30 30 30h184.177c17.345 28.74 48.876 48 84.823 48 78.444 0 125.415-87.225 83.226-152.558zm-382.226-229.442h-66v-65c0-18.196 14.804-33 33-33s33 14.804 33 33zm202.249 304h-172.249c0-16.009 0-345.373 0-361 0-10.902.782-24.572-9.363-41h250.363c18.196 0 33 14.804 33 33v249.126c-64.925-3.246-115.57 56.145-101.751 119.874zm96.751 48c-38.047 0-69-30.953-69-69 0-62.081 76.311-92.653 119.128-47.341l-46.128 46.128-13.394-13.394c-5.857-5.857-15.355-5.857-21.213 0-5.858 5.858-5.858 15.355 0 21.213l24 24c5.853 5.854 15.357 5.857 21.213 0l51.24-51.24c13.965 44.471-19.495 89.634-65.846 89.634z"
       id="path2"
       style="stroke:#232b43;stroke-opacity:1;fill:#232b43;fill-opacity:1" />
    <path
       d="m182.967 126h32c8.284 0 15-6.716 15-15s-6.716-15-15-15h-32c-8.284 0-15 6.716-15 15s6.716 15 15 15z"
       id="path4"
       style="stroke:#232b43;stroke-opacity:1;fill:#232b43;fill-opacity:1" />
    <path
       d="m182.967 182h32c8.284 0 15-6.716 15-15s-6.716-15-15-15h-32c-8.284 0-15 6.716-15 15s6.716 15 15 15z"
       id="path6"
       style="stroke:#232b43;stroke-opacity:1;fill:#232b43;fill-opacity:1" />
    <path
       d="m182.967 246h32c8.284 0 15-6.716 15-15s-6.716-15-15-15h-32c-8.284 0-15 6.716-15 15s6.716 15 15 15z"
       id="path8"
       style="stroke:#232b43;stroke-opacity:1;fill:#232b43;fill-opacity:1" />
    <path
       d="m270.967 280h-88c-8.284 0-15 6.716-15 15s6.716 15 15 15h88c8.284 0 15-6.716 15-15s-6.716-15-15-15z"
       id="path10"
       style="stroke:#232b43;stroke-opacity:1;fill:#232b43;fill-opacity:1" />
    <path
       d="m270.967 344h-88c-8.284 0-15 6.716-15 15s6.716 15 15 15h88c8.284 0 15-6.716 15-15s-6.716-15-15-15z"
       id="path12"
       style="stroke:#232b43;stroke-opacity:1;fill:#232b43;fill-opacity:1" />
    <path
       d="m338.922 152.03c-13.838-4.527-29.144-9.996-37.742-16.238-2.816-2.044-3.21-6.163-2.639-9.336 3.103-17.254 29.88-16.434 40.278-8.145l-.187-.156.02-.023c9.625 8.461 24.889 1.661 24.889-11.259 0-4.765-2.229-9.003-5.694-11.75-4.811-4.02-13.519-8.901-24.821-11.177v-4.796c0-8.284-6.716-15-15-15s-15 6.716-15 15v5.738c-37.488 9.751-45.584 56.227-19.47 75.182 9.642 6.998 22.979 12.929 46.037 20.472 14.234 4.656 14.974 14.228 14.146 19.518-1.491 9.544-10.202 19.86-25.803 19.956-15.004.092-19.69-.593-31.202-7.563-7.089-4.291-16.311-2.023-20.601 5.063s-2.023 16.31 5.063 20.6c12.08 7.313 20.981 10.275 31.828 11.352v5.532c0 8.284 6.716 15 15 15s15-6.716 15-15v-6.885c48.112-12.37 58.487-78.881 5.898-96.085z"
       id="path14"
       style="stroke:#232b43;stroke-opacity:1;fill:#232b43;fill-opacity:1" />
  </g>
</svg>
