<?xml version="1.0" encoding="UTF-8" standalone="no"?>
<!-- Generator: Adobe Illustrator 19.0.0, SVG Export Plug-In . SVG Version: 6.00 Build 0)  -->

<svg
   xmlns:dc="http://purl.org/dc/elements/1.1/"
   xmlns:cc="http://creativecommons.org/ns#"
   xmlns:rdf="http://www.w3.org/1999/02/22-rdf-syntax-ns#"
   xmlns:svg="http://www.w3.org/2000/svg"
   xmlns="http://www.w3.org/2000/svg"
   xmlns:sodipodi="http://sodipodi.sourceforge.net/DTD/sodipodi-0.dtd"
   xmlns:inkscape="http://www.inkscape.org/namespaces/inkscape"
   version="1.1"
   id="Layer_1"
   x="0px"
   y="0px"
   viewBox="0 0 512 512"
   style="enable-background:new 0 0 512 512;"
   xml:space="preserve"
   sodipodi:docname="savings.svg"
   inkscape:version="0.92.4 (5da689c313, 2019-01-14)"><metadata
   id="metadata67"><rdf:RDF><cc:Work
       rdf:about=""><dc:format>image/svg+xml</dc:format><dc:type
         rdf:resource="http://purl.org/dc/dcmitype/StillImage" /></cc:Work></rdf:RDF></metadata><defs
   id="defs65" /><sodipodi:namedview
   pagecolor="#ffffff"
   bordercolor="#666666"
   borderopacity="1"
   objecttolerance="10"
   gridtolerance="10"
   guidetolerance="10"
   inkscape:pageopacity="0"
   inkscape:pageshadow="2"
   inkscape:window-width="1920"
   inkscape:window-height="1017"
   id="namedview63"
   showgrid="false"
   showguides="false"
   inkscape:zoom="1.3037281"
   inkscape:cx="315.45166"
   inkscape:cy="197.44243"
   inkscape:window-x="-8"
   inkscape:window-y="-8"
   inkscape:window-maximized="1"
   inkscape:current-layer="Layer_1" />
<g
   id="g6"
   style="fill:#232b43;fill-opacity:1">
	<g
   id="g4"
   style="fill:#232b43;fill-opacity:1">
		<path
   d="M276.995,98.317c0,4.119,0.013,13.621,14.758,17.442V80.874C277.008,84.696,276.995,94.198,276.995,98.317z"
   id="path2"
   style="fill:#232b43;fill-opacity:1" />
	</g>
</g>
<g
   id="g12"
   style="fill:#232b43;fill-opacity:1">
	<g
   id="g10"
   style="fill:#232b43;fill-opacity:1">
		<path
   d="M322.168,149.452v34.884c14.745-3.82,14.758-13.322,14.758-17.442C336.926,162.774,336.913,153.272,322.168,149.452z"
   id="path8"
   style="fill:#232b43;fill-opacity:1" />
	</g>
</g>
<g
   id="g18"
   style="fill:#232b43;fill-opacity:1"
   transform="translate(0,2)">
	<g
   id="g16"
   style="fill:#232b43;fill-opacity:1">
		<path
   d="m 306.96,0 c -73.119,0 -132.605,59.486 -132.605,132.605 0,73.119 59.487,132.605 132.605,132.605 73.119,0 132.605,-59.486 132.605,-132.605 C 439.565,59.486 380.08,0 306.96,0 Z m 40.382,127.743 c 13.084,8.728 19.999,22.266 19.999,39.151 0,16.885 -6.916,30.423 -19.999,39.151 -6.932,4.624 -15.366,7.706 -25.174,9.229 v 14.957 h -30.416 v -14.957 c -9.808,-1.524 -18.242,-4.605 -25.174,-9.229 -13.084,-8.728 -19.999,-22.266 -19.999,-39.151 h 30.416 c 0,4.119 0.013,13.621 14.758,17.442 v -37.638 c -9.808,-1.524 -18.242,-4.606 -25.174,-9.23 -13.084,-8.728 -19.999,-22.266 -19.999,-39.151 0,-16.885 6.916,-30.423 19.999,-39.151 6.932,-4.624 15.366,-7.706 25.174,-9.23 V 34.979 h 30.416 v 14.957 c 9.808,1.524 18.242,4.605 25.174,9.23 13.084,8.728 19.999,22.266 19.999,39.151 h -30.416 c 0,-4.119 -0.013,-13.621 -14.758,-17.442 v 37.638 c 9.808,1.525 18.243,4.606 25.174,9.23 z"
   id="path14"
   style="fill:#232b43;fill-opacity:1"
   inkscape:connector-curvature="0" />
	</g>
</g>
<g
   id="g24"
   style="fill:#232b43;fill-opacity:1">
	<g
   id="g22"
   style="fill:#232b43;fill-opacity:1">
		<polygon
   points="0.28,305.681 0.28,512 75.285,512 75.285,481.584 75.285,472.804 75.285,336.097 75.285,307.919 75.285,305.681       "
   id="polygon20"
   style="fill:#232b43;fill-opacity:1" />
	</g>
</g>
<g
   id="g30"
   style="fill:#232b43;fill-opacity:1">
	<g
   id="g28"
   style="fill:#232b43;fill-opacity:1">
		<polygon
   points="500.436,354.179 373.879,388.961 266.058,362.665 273.265,333.116 373.424,357.543 373.651,357.48     373.651,318.419 233.628,283.355 105.701,303.201 105.701,305.681 105.701,333.981 105.701,438.787 105.701,469.394     179.63,461.101 322.874,501.312 511.72,397.229   "
   id="polygon26"
   style="fill:#232b43;fill-opacity:1" />
	</g>
</g>
<g
   id="g32"
   style="fill:#232b43;fill-opacity:1">
</g>
<g
   id="g34"
   style="fill:#232b43;fill-opacity:1">
</g>
<g
   id="g36"
   style="fill:#232b43;fill-opacity:1">
</g>
<g
   id="g38"
   style="fill:#232b43;fill-opacity:1">
</g>
<g
   id="g40"
   style="fill:#232b43;fill-opacity:1">
</g>
<g
   id="g42"
   style="fill:#232b43;fill-opacity:1">
</g>
<g
   id="g44"
   style="fill:#232b43;fill-opacity:1">
</g>
<g
   id="g46"
   style="fill:#232b43;fill-opacity:1">
</g>
<g
   id="g48"
   style="fill:#232b43;fill-opacity:1">
</g>
<g
   id="g50"
   style="fill:#232b43;fill-opacity:1">
</g>
<g
   id="g52"
   style="fill:#232b43;fill-opacity:1">
</g>
<g
   id="g54"
   style="fill:#232b43;fill-opacity:1">
</g>
<g
   id="g56"
   style="fill:#232b43;fill-opacity:1">
</g>
<g
   id="g58"
   style="fill:#232b43;fill-opacity:1">
</g>
<g
   id="g60"
   style="fill:#232b43;fill-opacity:1">
</g>
</svg>