<?xml version="1.0" encoding="UTF-8" standalone="no"?>
<!-- Generator: Adobe Illustrator 16.0.0, SVG Export Plug-In . SVG Version: 6.00 Build 0)  -->

<svg
   xmlns:dc="http://purl.org/dc/elements/1.1/"
   xmlns:cc="http://creativecommons.org/ns#"
   xmlns:rdf="http://www.w3.org/1999/02/22-rdf-syntax-ns#"
   xmlns:svg="http://www.w3.org/2000/svg"
   xmlns="http://www.w3.org/2000/svg"
   xmlns:sodipodi="http://sodipodi.sourceforge.net/DTD/sodipodi-0.dtd"
   xmlns:inkscape="http://www.inkscape.org/namespaces/inkscape"
   version="1.1"
   id="Capa_1"
   x="0px"
   y="0px"
   width="91.201px"
   height="91.201px"
   viewBox="0 0 91.201 91.201"
   style="enable-background:new 0 0 91.201 91.201;"
   xml:space="preserve"
   sodipodi:docname="pdf.svg"
   inkscape:version="0.92.4 (5da689c313, 2019-01-14)"><metadata
   id="metadata49"><rdf:RDF><cc:Work
       rdf:about=""><dc:format>image/svg+xml</dc:format><dc:type
         rdf:resource="http://purl.org/dc/dcmitype/StillImage" /></cc:Work></rdf:RDF></metadata><defs
   id="defs47" /><sodipodi:namedview
   pagecolor="#ffffff"
   bordercolor="#666666"
   borderopacity="1"
   objecttolerance="10"
   gridtolerance="10"
   guidetolerance="10"
   inkscape:pageopacity="0"
   inkscape:pageshadow="2"
   inkscape:window-width="1920"
   inkscape:window-height="1017"
   id="namedview45"
   showgrid="false"
   inkscape:zoom="2.587691"
   inkscape:cx="45.600498"
   inkscape:cy="45.600498"
   inkscape:window-x="-8"
   inkscape:window-y="-8"
   inkscape:window-maximized="1"
   inkscape:current-layer="g10" />
<g
   id="g12">
	<g
   id="g10">
		<path
   d="M45.182,37.845c-1.118,0-1.842,0.099-2.269,0.197v14.502c0.427,0.099,1.118,0.099,1.743,0.099    c4.538,0.032,7.497-2.467,7.497-7.76C52.186,40.279,49.488,37.845,45.182,37.845z"
   id="path2"
   style="fill:#232b43;fill-opacity:1" />
		<path
   d="M25.817,37.78c-1.021,0-1.71,0.099-2.072,0.197v6.543c0.428,0.099,0.953,0.132,1.677,0.132    c2.664,0,4.308-1.348,4.308-3.617C29.73,38.996,28.317,37.78,25.817,37.78z"
   id="path4"
   style="fill:#232b43;fill-opacity:1" />
		<path
   d="M58.984,0H12.336v91.201h66.529V27.05L55.23,10.73L58.984,0z M32.656,46.165c-1.71,1.61-4.241,2.335-7.2,2.335    c-0.659,0-1.25-0.033-1.711-0.1v7.924H18.78V34.459c1.545-0.264,3.715-0.461,6.773-0.461c3.091,0,5.294,0.592,6.775,1.776    c1.414,1.118,2.367,2.959,2.367,5.129C34.695,43.074,33.971,44.915,32.656,46.165z M60.764,34.163h13.549v4.11h-8.517v5.063h7.958    v4.076h-7.958v8.912h-5.032V34.163z M57.479,44.717c0,4.242-1.543,7.168-3.682,8.977c-2.335,1.94-5.887,2.862-10.226,2.862    c-2.598,0-4.44-0.166-5.689-0.329V34.459c1.842-0.296,4.242-0.461,6.775-0.461c4.208,0,6.938,0.756,9.076,2.369    C56.033,38.076,57.479,40.805,57.479,44.717z"
   id="path6"
   style="fill:#232b43;fill-opacity:1" />
		<polygon
   points="63.652,0 60.613,8.694 78.865,21.297   "
   id="polygon8"
   style="fill:#232b43;fill-opacity:1" />
	</g>
</g>
<g
   id="g14">
</g>
<g
   id="g16">
</g>
<g
   id="g18">
</g>
<g
   id="g20">
</g>
<g
   id="g22">
</g>
<g
   id="g24">
</g>
<g
   id="g26">
</g>
<g
   id="g28">
</g>
<g
   id="g30">
</g>
<g
   id="g32">
</g>
<g
   id="g34">
</g>
<g
   id="g36">
</g>
<g
   id="g38">
</g>
<g
   id="g40">
</g>
<g
   id="g42">
</g>
</svg>