<?xml version="1.0" encoding="UTF-8" standalone="no"?>
<!-- Generator: Adobe Illustrator 16.0.0, SVG Export Plug-In . SVG Version: 6.00 Build 0)  -->

<svg
   xmlns:dc="http://purl.org/dc/elements/1.1/"
   xmlns:cc="http://creativecommons.org/ns#"
   xmlns:rdf="http://www.w3.org/1999/02/22-rdf-syntax-ns#"
   xmlns:svg="http://www.w3.org/2000/svg"
   xmlns="http://www.w3.org/2000/svg"
   xmlns:sodipodi="http://sodipodi.sourceforge.net/DTD/sodipodi-0.dtd"
   xmlns:inkscape="http://www.inkscape.org/namespaces/inkscape"
   version="1.1"
   id="Capa_1"
   x="0px"
   y="0px"
   width="981.8px"
   height="981.801px"
   viewBox="0 0 981.8 981.801"
   style="enable-background:new 0 0 981.8 981.801;"
   xml:space="preserve"
   sodipodi:docname="pcikedUp.svg"
   inkscape:version="0.92.4 (5da689c313, 2019-01-14)"><metadata
   id="metadata43"><rdf:RDF><cc:Work
       rdf:about=""><dc:format>image/svg+xml</dc:format><dc:type
         rdf:resource="http://purl.org/dc/dcmitype/StillImage" /></cc:Work></rdf:RDF></metadata><defs
   id="defs41" /><sodipodi:namedview
   pagecolor="#ffffff"
   bordercolor="#666666"
   borderopacity="1"
   objecttolerance="10"
   gridtolerance="10"
   guidetolerance="10"
   inkscape:pageopacity="0"
   inkscape:pageshadow="2"
   inkscape:window-width="1920"
   inkscape:window-height="1017"
   id="namedview39"
   showgrid="false"
   inkscape:zoom="0.16997049"
   inkscape:cx="-1857.1246"
   inkscape:cy="222.34939"
   inkscape:window-x="-8"
   inkscape:window-y="-8"
   inkscape:window-maximized="1"
   inkscape:current-layer="g6" />
<g
   id="g6"
   style="fill:#232b43;fill-opacity:1">
	<path
   d="M 757.88386,116.31533 C 709.24997,61.95439 638.39965,23.218265 558.49985,7.142344 478.60103,-8.93338 398.28181,-0.612725 332.40942,30.709436 299.12981,46.55643 271.0808,67.33198 249.14532,92.70371 c -3.31877,3.82044 -6.4612,7.77836 -9.5056,11.756 L 169.44641,90.33675 C 136.9967,83.80783 105.31922,104.87337 98.790303,137.32307 L 78.749892,236.927 203.5489,262.03669 l 89.80039,18.06793 404.20077,81.3256 89.80039,18.06793 124.70098,25.08997 20.06013,-99.70196 c 6.52892,-32.44971 -14.53662,-64.1272 -46.98632,-70.65611 l -70.29136,-14.14269 c -1.17112,-4.82581 -2.63635,-9.7108 -4.21935,-14.51748 -10.33787,-31.76315 -28.1497,-61.86795 -52.73067,-89.25455 z m -424.69868,6.86382 c 9.99107,-7.57816 21.13825,-14.31169 33.65733,-20.25917 50.4099,-23.92682 112.86048,-30.13044 175.99525,-17.42766 63.03772,12.68325 118.32662,42.57618 155.56132,84.13718 9.16645,10.20862 16.92037,20.84708 23.20318,31.69956 z"
   id="path2"
   style="fill:#232b43;fill-opacity:1"
   inkscape:connector-curvature="0" />
	<path
   d="M915.951,379.8h-164.5h-130.6H361.05h-130.6H65.95l-26.9,539c-1.7,34.299,25.6,63,59.9,63h783.901   c34.3,0,61.6-28.701,59.899-63L915.951,379.8z"
   id="path4"
   style="fill:#232b43;fill-opacity:1" />
</g>
<g
   id="g8"
   style="fill:#232b43;fill-opacity:1">
</g>
<g
   id="g10"
   style="fill:#232b43;fill-opacity:1">
</g>
<g
   id="g12"
   style="fill:#232b43;fill-opacity:1">
</g>
<g
   id="g14"
   style="fill:#232b43;fill-opacity:1">
</g>
<g
   id="g16"
   style="fill:#232b43;fill-opacity:1">
</g>
<g
   id="g18"
   style="fill:#232b43;fill-opacity:1">
</g>
<g
   id="g20"
   style="fill:#232b43;fill-opacity:1">
</g>
<g
   id="g22"
   style="fill:#232b43;fill-opacity:1">
</g>
<g
   id="g24"
   style="fill:#232b43;fill-opacity:1">
</g>
<g
   id="g26"
   style="fill:#232b43;fill-opacity:1">
</g>
<g
   id="g28"
   style="fill:#232b43;fill-opacity:1">
</g>
<g
   id="g30"
   style="fill:#232b43;fill-opacity:1">
</g>
<g
   id="g32"
   style="fill:#232b43;fill-opacity:1">
</g>
<g
   id="g34"
   style="fill:#232b43;fill-opacity:1">
</g>
<g
   id="g36"
   style="fill:#232b43;fill-opacity:1">
</g>
</svg>