<?xml version="1.0" encoding="UTF-8" standalone="no"?>
<!-- Generator: Adobe Illustrator 16.0.0, SVG Export Plug-In . SVG Version: 6.00 Build 0)  -->

<svg
   xmlns:dc="http://purl.org/dc/elements/1.1/"
   xmlns:cc="http://creativecommons.org/ns#"
   xmlns:rdf="http://www.w3.org/1999/02/22-rdf-syntax-ns#"
   xmlns:svg="http://www.w3.org/2000/svg"
   xmlns="http://www.w3.org/2000/svg"
   xmlns:sodipodi="http://sodipodi.sourceforge.net/DTD/sodipodi-0.dtd"
   xmlns:inkscape="http://www.inkscape.org/namespaces/inkscape"
   version="1.1"
   id="Capa_1"
   x="0px"
   y="0px"
   width="981.8px"
   height="981.801px"
   viewBox="0 0 981.8 981.801"
   style="enable-background:new 0 0 981.8 981.801;"
   xml:space="preserve"
   sodipodi:docname="beutel-gefulltes-werkzeug.svg"
   inkscape:version="0.92.4 (5da689c313, 2019-01-14)"><metadata
   id="metadata43"><rdf:RDF><cc:Work
       rdf:about=""><dc:format>image/svg+xml</dc:format><dc:type
         rdf:resource="http://purl.org/dc/dcmitype/StillImage" /></cc:Work></rdf:RDF></metadata><defs
   id="defs41" /><sodipodi:namedview
   pagecolor="#ffffff"
   bordercolor="#666666"
   borderopacity="1"
   objecttolerance="10"
   gridtolerance="10"
   guidetolerance="10"
   inkscape:pageopacity="0"
   inkscape:pageshadow="2"
   inkscape:window-width="1920"
   inkscape:window-height="1017"
   id="namedview39"
   showgrid="false"
   inkscape:zoom="0.24037457"
   inkscape:cx="490.89999"
   inkscape:cy="490.90051"
   inkscape:window-x="-8"
   inkscape:window-y="-8"
   inkscape:window-maximized="1"
   inkscape:current-layer="Capa_1" />
<g
   id="g6"
   style="fill:#232b43;fill-opacity:1">
	<path
   d="M707.951,67.7C649.55,24,572.451,0,490.95,0c-81.5,0-158.6,24-217,67.7c-29.5,22.1-52.9,48-69.4,77.2   c-2.5,4.4-4.8,8.9-7,13.4h-71.6c-33.1,0-60,26.9-60,60v101.6h127.3h91.6h412.301h91.6h127.2V218.2c0-33.1-26.9-60-60-60h-71.7   c-2.1-4.5-4.5-9-7-13.4C760.851,115.7,737.451,89.7,707.951,67.7z M292.95,158.2c8.3-9.4,17.9-18.2,29-26.5   c44.7-33.4,104.7-51.8,169.1-51.8c64.301,0,124.4,18.4,169.101,51.8c11,8.2,20.7,17.1,29,26.5H292.95z"
   id="path2"
   style="fill:#232b43;fill-opacity:1" />
	<path
   d="M915.951,379.8h-164.5h-130.6H361.05h-130.6H65.95l-26.9,539c-1.7,34.299,25.6,63,59.9,63h783.901   c34.3,0,61.6-28.701,59.899-63L915.951,379.8z"
   id="path4"
   style="fill:#232b43;fill-opacity:1" />
</g>
<g
   id="g8"
   style="fill:#232b43;fill-opacity:1">
</g>
<g
   id="g10"
   style="fill:#232b43;fill-opacity:1">
</g>
<g
   id="g12"
   style="fill:#232b43;fill-opacity:1">
</g>
<g
   id="g14"
   style="fill:#232b43;fill-opacity:1">
</g>
<g
   id="g16"
   style="fill:#232b43;fill-opacity:1">
</g>
<g
   id="g18"
   style="fill:#232b43;fill-opacity:1">
</g>
<g
   id="g20"
   style="fill:#232b43;fill-opacity:1">
</g>
<g
   id="g22"
   style="fill:#232b43;fill-opacity:1">
</g>
<g
   id="g24"
   style="fill:#232b43;fill-opacity:1">
</g>
<g
   id="g26"
   style="fill:#232b43;fill-opacity:1">
</g>
<g
   id="g28"
   style="fill:#232b43;fill-opacity:1">
</g>
<g
   id="g30"
   style="fill:#232b43;fill-opacity:1">
</g>
<g
   id="g32"
   style="fill:#232b43;fill-opacity:1">
</g>
<g
   id="g34"
   style="fill:#232b43;fill-opacity:1">
</g>
<g
   id="g36"
   style="fill:#232b43;fill-opacity:1">
</g>
</svg>