<?xml version="1.0" encoding="UTF-8" standalone="no"?>
<svg
   xmlns:dc="http://purl.org/dc/elements/1.1/"
   xmlns:cc="http://creativecommons.org/ns#"
   xmlns:rdf="http://www.w3.org/1999/02/22-rdf-syntax-ns#"
   xmlns:svg="http://www.w3.org/2000/svg"
   xmlns="http://www.w3.org/2000/svg"
   xmlns:xlink="http://www.w3.org/1999/xlink"
   xmlns:sodipodi="http://sodipodi.sourceforge.net/DTD/sodipodi-0.dtd"
   xmlns:inkscape="http://www.inkscape.org/namespaces/inkscape"
   id="Capa_1"
   enable-background="new 0 0 512 512"
   height="512"
   viewBox="0 0 512 512"
   width="512"
   version="1.1"
   sodipodi:docname="shopping-basket.svg"
   inkscape:version="0.92.4 (5da689c313, 2019-01-14)">
  <metadata
     id="metadata13">
    <rdf:RDF>
      <cc:Work
         rdf:about="">
        <dc:format>image/svg+xml</dc:format>
        <dc:type
           rdf:resource="http://purl.org/dc/dcmitype/StillImage" />
      </cc:Work>
    </rdf:RDF>
  </metadata>
  <defs
     id="defs11">
    <linearGradient
       id="linearGradient4537"
       inkscape:collect="always">
      <stop
         id="stop4533"
         offset="0"
         style="stop-color:#ffd400;stop-opacity:1" />
      <stop
         id="stop4535"
         offset="1"
         style="stop-color:#773e1c;stop-opacity:1" />
    </linearGradient>
    <linearGradient
       inkscape:collect="always"
       id="linearGradient4527">
      <stop
         style="stop-color:#ffd400;stop-opacity:1"
         offset="0"
         id="stop4523" />
      <stop
         style="stop-color:#773e1c;stop-opacity:1"
         offset="1"
         id="stop4525" />
    </linearGradient>
    <linearGradient
       inkscape:collect="always"
       xlink:href="#linearGradient4527"
       id="linearGradient4529"
       x1="3.0681236"
       y1="36.440723"
       x2="512.37677"
       y2="512"
       gradientUnits="userSpaceOnUse" />
    <linearGradient
       inkscape:collect="always"
       xlink:href="#linearGradient4537"
       id="linearGradient4531"
       x1="3.0681236"
       y1="36.440723"
       x2="512.37677"
       y2="512"
       gradientUnits="userSpaceOnUse" />
  </defs>
  <sodipodi:namedview
     pagecolor="#ffffff"
     bordercolor="#666666"
     borderopacity="1"
     objecttolerance="10"
     gridtolerance="10"
     guidetolerance="10"
     inkscape:pageopacity="0"
     inkscape:pageshadow="2"
     inkscape:window-width="1920"
     inkscape:window-height="1017"
     id="namedview9"
     showgrid="false"
     inkscape:zoom="0.65186406"
     inkscape:cx="-90.277846"
     inkscape:cy="388.06255"
     inkscape:window-x="-8"
     inkscape:window-y="-8"
     inkscape:window-maximized="1"
     inkscape:current-layer="g6" />
  <g
     id="g6">
    <path
       d="m497 181h-52.791l-115.496-144.37c-5.174-6.467-14.613-7.518-21.083-2.342-6.469 5.175-7.518 14.614-2.342 21.083l100.503 125.629h-299.582l100.504-125.629c5.175-6.469 4.126-15.909-2.342-21.083-6.47-5.176-15.909-4.126-21.083 2.342l-115.497 144.37h-52.791c-8.284 0-15 6.716-15 15v30c0 8.284 6.716 15 15 15h482c8.284 0 15-6.716 15-15v-30c0-8.284-6.716-15-15-15z"
       id="path2"
       style="fill-opacity:1;fill:url(#linearGradient4531)" />
    <path
       d="M 90.577,466.121 C 92.417,472.561 98.303,477 105,477 h 302 c 6.697,0 12.583,-4.439 14.423,-10.879 L 478.314,267 H 33.686 Z m 234.127,-66.586 15,-90 c 1.362,-8.172 9.09,-13.696 17.262,-12.33 8.172,1.362 13.692,9.09 12.33,17.262 l -15,90 c -1.223,7.337 -7.578,12.537 -14.778,12.537 -0.819,0 -1.649,-0.067 -2.484,-0.207 -8.172,-1.362 -13.692,-9.091 -12.33,-17.262 z M 241,312 c 0,-8.284 6.716,-15 15,-15 8.284,0 15,6.716 15,15 v 90 c 0,8.284 -6.716,15 -15,15 -8.284,0 -15,-6.716 -15,-15 z m -84.966,-14.795 c 8.173,-1.361 15.9,4.158 17.262,12.33 l 15,90 c 1.362,8.171 -4.158,15.9 -12.33,17.262 -0.834,0.139 -1.665,0.207 -2.484,0.207 -7.201,0 -13.555,-5.199 -14.778,-12.537 l -15,-90 c -1.362,-8.172 4.158,-15.901 12.33,-17.262 z"
       id="path4"
       inkscape:connector-curvature="0"
       style="fill-opacity:1;fill:url(#linearGradient4529)" />
  </g>
</svg>
