<?xml version="1.0" encoding="UTF-8" standalone="no"?>
<!-- Created with Inkscape (http://www.inkscape.org/) -->

<svg
   xmlns:dc="http://purl.org/dc/elements/1.1/"
   xmlns:cc="http://creativecommons.org/ns#"
   xmlns:rdf="http://www.w3.org/1999/02/22-rdf-syntax-ns#"
   xmlns:svg="http://www.w3.org/2000/svg"
   xmlns="http://www.w3.org/2000/svg"
   xmlns:xlink="http://www.w3.org/1999/xlink"
   xmlns:sodipodi="http://sodipodi.sourceforge.net/DTD/sodipodi-0.dtd"
   xmlns:inkscape="http://www.inkscape.org/namespaces/inkscape"
   width="512"
   height="512"
   viewBox="0 0 135.46666 135.46667"
   version="1.1"
   id="svg855"
   inkscape:version="0.92.4 (5da689c313, 2019-01-14)"
   sodipodi:docname="pub_administration.svg">
  <defs
     id="defs849">
    <linearGradient
       inkscape:collect="always"
       id="linearGradient820">
      <stop
         style="stop-color:#ffd400;stop-opacity:1"
         offset="0"
         id="stop816" />
      <stop
         style="stop-color:#773e1c;stop-opacity:0.99678457"
         offset="1"
         id="stop818" />
    </linearGradient>
    <linearGradient
       inkscape:collect="always"
       xlink:href="#linearGradient820"
       id="linearGradient822"
       x1="10.583333"
       y1="163.19641"
       x2="124.73214"
       y2="298.51187"
       gradientUnits="userSpaceOnUse" />
  </defs>
  <sodipodi:namedview
     id="base"
     pagecolor="#ffffff"
     bordercolor="#666666"
     borderopacity="1.0"
     inkscape:pageopacity="0.0"
     inkscape:pageshadow="2"
     inkscape:zoom="0.35"
     inkscape:cx="-1153.2658"
     inkscape:cy="178.53037"
     inkscape:document-units="mm"
     inkscape:current-layer="layer1"
     showgrid="false"
     units="px"
     inkscape:window-width="1920"
     inkscape:window-height="1017"
     inkscape:window-x="-8"
     inkscape:window-y="-8"
     inkscape:window-maximized="1" />
  <metadata
     id="metadata852">
    <rdf:RDF>
      <cc:Work
         rdf:about="">
        <dc:format>image/svg+xml</dc:format>
        <dc:type
           rdf:resource="http://purl.org/dc/dcmitype/StillImage" />
        <dc:title />
      </cc:Work>
    </rdf:RDF>
  </metadata>
  <g
     inkscape:label="Ebene 1"
     inkscape:groupmode="layer"
     id="layer1"
     transform="translate(0,-161.53332)">
    <path
       style="fill:url(#linearGradient822);stroke-width:0.26458412;fill-opacity:1"
       d="m 34.395914,288.03256 c 0,-9.96619 0.237316,-13.23239 1.208829,-16.63726 3.071491,-10.76463 11.593627,-18.59393 22.658733,-20.81664 2.877387,-0.57799 16.426437,-0.58468 19.457987,-0.01 12.68858,2.40698 22.11172,12.65472 23.602417,25.66779 0.14964,1.30622 0.27304,6.51239 0.27423,11.56925 l 0.002,9.19429 H 67.998093 34.395914 Z m 73.008746,-21.39319 c -0.17715,-0.54571 -0.83959,-2.08327 -1.47208,-3.41681 -3.8457,-8.10814 -10.806277,-14.7901 -19.035667,-18.27369 l -2.24668,-0.95104 2.01243,-2.02581 c 2.4598,-2.47613 4.09804,-4.75459 5.42901,-7.55057 4.69048,-9.85342 2.77981,-21.76248 -4.74705,-29.58782 -3.81186,-3.96302 -7.69603,-6.23485 -13.26109,-7.75631 -2.72117,-0.74397 -9.71173,-0.66779 -12.70004,0.13839 -4.545252,1.2262 -8.314147,3.37802 -11.8608,6.77183 -6.198589,5.93146 -9.155619,14.49835 -7.881791,22.83459 0.928227,6.07456 3.104185,10.39442 7.524928,14.939 1.91982,1.97361 2.171955,2.33336 1.741162,2.48432 -9.391963,3.29116 -17.574397,11.07523 -21.50164,20.45482 -0.52942,1.26444 -1.081644,2.30995 -1.227165,2.32336 -0.145521,0.0134 -2.837467,-2.45327 -5.982099,-5.48152 l -5.717515,-5.50589 3.946706,-6.41106 3.946706,-6.41106 -0.911559,-2.14496 c -0.501359,-1.17973 -0.992484,-2.41298 -1.091391,-2.74056 -0.230572,-0.76365 -0.636013,-0.96352 -3.054417,-1.50574 -1.091409,-0.2447 -4.216809,-0.98325 -6.945333,-1.64122 l -4.9609517,-1.1963 v -12.09797 -12.09797 l 6.4161637,-1.52972 c 3.528892,-0.84135 6.843647,-1.63762 7.366124,-1.76951 0.803743,-0.20286 0.99868,-0.40238 1.266502,-1.29629 0.174097,-0.58109 0.668555,-1.84109 1.098794,-2.80002 0.641938,-1.43076 0.728622,-1.84369 0.483268,-2.30214 -0.164442,-0.30727 -1.844244,-3.06241 -3.732895,-6.12255 -1.888651,-3.06013 -3.496988,-5.72826 -3.574085,-5.92917 -0.08776,-0.22869 3.015077,-3.5217 8.297195,-8.80576 4.640552,-4.64225 8.528012,-8.44046 8.638796,-8.44046 0.110787,0 3.01182,1.73111 6.44674,3.84691 l 6.245313,3.84691 2.864385,-1.13492 2.864388,-1.13492 1.497919,-6.21773 c 0.823863,-3.41975 1.619565,-6.72374 1.768226,-7.34221 l 0.270301,-1.12448 h 12.118245 12.11826 l 0.40962,1.78594 c 0.99576,4.34143 3.06195,12.84058 3.12993,12.87478 0.0411,0.0207 1.33922,0.54712 2.88467,1.16987 l 2.80992,1.13228 6.26697,-3.85122 c 3.44684,-2.11816 6.350267,-3.85121 6.452077,-3.85121 0.2729,0 16.98309,16.76355 16.98309,17.03732 0,0.12825 -1.68129,2.96237 -3.73619,6.29806 -2.05491,3.33569 -3.75155,6.20665 -3.77033,6.37991 -0.0256,0.23622 1.8174,5.21548 2.10459,5.68602 0.0535,0.0877 14.14676,3.48967 14.46394,3.49144 0.10914,5.3e-4 0.19844,5.46999 0.19844,12.15416 0,11.34845 -0.0307,12.16164 -0.46302,12.28294 -0.25468,0.0714 -3.32054,0.80103 -6.81306,1.6213 -3.49251,0.82028 -6.56924,1.55523 -6.83719,1.63323 -0.26795,0.078 -0.66042,0.57683 -0.87217,1.10851 -0.21175,0.53168 -0.74469,1.81144 -1.18431,2.84389 l -0.7993,1.87721 3.88676,6.31002 c 2.61756,4.24952 3.81136,6.41891 3.65586,6.64349 -0.44198,0.63832 -10.5509,11.42632 -10.72759,11.44823 -0.0979,0.0121 -0.32287,-0.42442 -0.50002,-0.97012 z M 65.025073,241.44711 c -1.89734,-0.34683 -3.83834,-1.03095 -5.89054,-2.0762 -2.672943,-1.3614 -6.284139,-5.03428 -7.616563,-7.74669 -2.997077,-6.10112 -2.665045,-13.19328 0.870942,-18.60315 1.713551,-2.62163 4.60146,-5.21698 7.248161,-6.51386 3.00855,-1.47419 5.04501,-1.94887 8.36102,-1.94887 4.86625,0 8.97025,1.58045 12.44294,4.79179 3.88299,3.59076 5.79325,7.69379 6.01602,12.92172 0.23873,5.60242 -1.38084,9.76135 -5.35773,13.75819 -2.59955,2.61262 -4.60434,3.84095 -7.94183,4.86595 -2.08001,0.6388 -6.14552,0.91431 -8.13242,0.55112 z"
       id="path1411"
       inkscape:connector-curvature="0" />
  </g>
</svg>
