<?xml version="1.0" encoding="UTF-8" standalone="no"?>
<!-- Created with Inkscape (http://www.inkscape.org/) -->

<svg
   xmlns:dc="http://purl.org/dc/elements/1.1/"
   xmlns:cc="http://creativecommons.org/ns#"
   xmlns:rdf="http://www.w3.org/1999/02/22-rdf-syntax-ns#"
   xmlns:svg="http://www.w3.org/2000/svg"
   xmlns="http://www.w3.org/2000/svg"
   xmlns:xlink="http://www.w3.org/1999/xlink"
   xmlns:sodipodi="http://sodipodi.sourceforge.net/DTD/sodipodi-0.dtd"
   xmlns:inkscape="http://www.inkscape.org/namespaces/inkscape"
   width="512"
   height="512"
   viewBox="0 0 135.46666 135.46667"
   version="1.1"
   id="svg855"
   inkscape:version="0.92.4 (5da689c313, 2019-01-14)"
   sodipodi:docname="pub_settings.svg">
  <defs
     id="defs849">
    <linearGradient
       inkscape:collect="always"
       id="linearGradient888">
      <stop
         style="stop-color:#e1d400;stop-opacity:1"
         offset="0"
         id="stop884" />
      <stop
         style="stop-color:#773e1c;stop-opacity:1"
         offset="1"
         id="stop886" />
    </linearGradient>
    <inkscape:perspective
       sodipodi:type="inkscape:persp3d"
       inkscape:vp_x="0 : 67.733335 : 1"
       inkscape:vp_y="0 : 1000 : 0"
       inkscape:vp_z="135.46666 : 67.733335 : 1"
       inkscape:persp3d-origin="67.73333 : 45.155557 : 1"
       id="perspective857" />
    <linearGradient
       inkscape:collect="always"
       xlink:href="#linearGradient888"
       id="linearGradient890"
       x1="8.4239473"
       y1="160.65901"
       x2="128.9435"
       y2="281.4411"
       gradientUnits="userSpaceOnUse" />
  </defs>
  <sodipodi:namedview
     id="base"
     pagecolor="#ffffff"
     bordercolor="#666666"
     borderopacity="1.0"
     inkscape:pageopacity="0.0"
     inkscape:pageshadow="2"
     inkscape:zoom="0.7"
     inkscape:cx="107.47797"
     inkscape:cy="107.40044"
     inkscape:document-units="mm"
     inkscape:current-layer="g855"
     showgrid="false"
     units="px"
     inkscape:window-width="1920"
     inkscape:window-height="1137"
     inkscape:window-x="1912"
     inkscape:window-y="-8"
     inkscape:window-maximized="1" />
  <metadata
     id="metadata852">
    <rdf:RDF>
      <cc:Work
         rdf:about="">
        <dc:format>image/svg+xml</dc:format>
        <dc:type
           rdf:resource="http://purl.org/dc/dcmitype/StillImage" />
        <dc:title />
      </cc:Work>
    </rdf:RDF>
  </metadata>
  <g
     inkscape:label="Ebene 1"
     inkscape:groupmode="layer"
     id="layer1"
     transform="translate(0,-161.53332)">
    <g
       id="g855"
       transform="matrix(1.1164954,0,0,1.1234566,-8.2713701,-19.942837)"
       style="fill-opacity:1;fill:url(#linearGradient890)">
      <path
         sodipodi:nodetypes="cccsssasssccaccccccscsccccsccccccsssccccccccccsccssccccsccssccsccc"
         inkscape:connector-curvature="0"
         id="path1411"
         d="m 107.40466,266.63937 c -0.17715,-0.54571 -0.83959,-2.08327 -1.47208,-3.41681 -3.8457,-8.10814 -10.806277,-14.7901 -19.035667,-18.27369 0,0 -2.089295,-0.15735 -2.24668,-0.95104 -0.184612,-0.931 2.01243,-2.02581 2.01243,-2.02581 2.459788,-2.47614 4.098048,-4.75459 5.42901,-7.55057 4.690488,-9.85342 0.91469,-21.33648 -4.74705,-29.58782 -2.889674,-4.21137 -7.696033,-6.23484 -13.26109,-7.75631 -2.721173,-0.74396 -8.458311,-1.0111 -12.70004,0.13839 -4.241729,1.14949 -8.314147,3.37802 -11.8608,6.77183 -6.198589,5.93146 -8.339277,16.04196 -7.881791,22.83459 0.457486,6.79263 3.104185,10.39442 7.524928,14.939 1.91982,1.97361 1.841961,1.48012 1.741162,2.48432 -0.984854,9.81148 -17.574397,11.07523 -21.50164,20.45482 -0.52942,1.26444 -1.081644,2.30995 -1.227165,2.32336 -0.145521,0.0134 -2.837467,-2.45327 -5.982099,-5.48152 l -5.717515,-5.50589 3.946706,-6.41106 3.946706,-6.41106 -0.911559,-2.14496 c -0.501359,-1.17973 -0.992484,-2.41298 -1.091391,-2.74056 -0.230572,-0.76365 -0.636013,-0.96352 -3.054417,-1.50574 -1.091409,-0.2447 -4.216809,-0.98325 -6.945333,-1.64122 l -4.9609517,-1.1963 v -12.09797 -12.09797 l 6.4161637,-1.52972 c 3.528892,-0.84135 6.843647,-1.63762 7.366124,-1.76951 0.803743,-0.20286 0.99868,-0.40238 1.266502,-1.29629 0.174097,-0.58109 0.668555,-1.84109 1.098794,-2.80002 0.641938,-1.43076 0.728622,-1.84369 0.483268,-2.30214 -0.164442,-0.30727 -1.844244,-3.06241 -3.732895,-6.12255 -1.888651,-3.06013 -3.496988,-5.72826 -3.574085,-5.92917 -0.08776,-0.22869 3.015077,-3.5217 8.297195,-8.80576 4.640552,-4.64225 8.528012,-8.44046 8.638796,-8.44046 0.110787,0 3.01182,1.73111 6.44674,3.84691 l 6.245313,3.84691 2.864385,-1.13492 2.864388,-1.13492 1.497919,-6.21773 c 0.823863,-3.41975 1.619565,-6.72374 1.768226,-7.34221 l 0.270301,-1.12448 h 12.118245 12.11826 l 0.40962,1.78594 c 0.99576,4.34143 3.06195,12.84058 3.12993,12.87478 0.0411,0.0207 1.33922,0.54712 2.88467,1.16987 l 2.80992,1.13228 6.26697,-3.85122 c 3.44684,-2.11816 6.350267,-3.85121 6.452077,-3.85121 0.2729,0 16.98309,16.76355 16.98309,17.03732 0,0.12825 -1.68129,2.96237 -3.73619,6.29806 -2.05491,3.33569 -3.75155,6.20665 -3.77033,6.37991 -0.0256,0.23622 1.8174,5.21548 2.10459,5.68602 0.0535,0.0877 14.14676,3.48967 14.46394,3.49144 0.10914,5.3e-4 0.19844,5.46999 0.19844,12.15416 0,11.34845 -0.0307,12.16164 -0.46302,12.28294 -0.25468,0.0714 -3.32054,0.80103 -6.81306,1.6213 -3.49251,0.82028 -6.56924,1.55523 -6.83719,1.63323 -0.26795,0.078 -0.66042,0.57683 -0.87217,1.10851 -0.21175,0.53168 -0.74469,1.81144 -1.18431,2.84389 l -0.7993,1.87721 3.88676,6.31002 c 2.61756,4.24952 3.81136,6.41891 3.65586,6.64349 -0.44198,0.63832 -10.5509,11.42632 -10.72759,11.44823 -0.0979,0.0121 -0.32287,-0.42442 -0.50002,-0.97012 z"
         style="fill:url(#linearGradient890);fill-opacity:1;stroke-width:0.26458412" />
      <path
         sodipodi:nodetypes="ccccccsccsscsccccccscsccccsccccccsssccccccccccsccssccccsccssccsccc"
         inkscape:connector-curvature="0"
         id="path1411-6"
         d="m 28.74404,177.00794 c 0.17715,0.54571 0.83959,2.08327 1.47208,3.41681 3.8457,8.10814 10.80628,14.7901 19.03567,18.27369 l 2.24668,0.95104 -2.01243,2.02581 c -2.4598,2.47613 -4.09804,4.75459 -5.42901,7.55057 -4.69048,9.85342 -2.77981,21.76248 4.74705,29.58782 3.81186,3.96302 7.69603,6.23485 13.26109,7.75631 2.72117,0.74397 9.711728,0.66779 12.700039,-0.13839 4.54525,-1.2262 8.31415,-3.37802 11.8608,-6.77183 6.19859,-5.93146 9.15562,-14.49835 7.88179,-22.83459 -0.92823,-6.07456 -3.10418,-10.39442 -7.52493,-14.939 -1.91982,-1.97361 -2.17195,-2.33336 -1.74116,-2.48432 9.39196,-3.29116 17.574401,-11.07523 21.501641,-20.45482 0.52942,-1.26444 1.08165,-2.30995 1.22717,-2.32336 0.14552,-0.0134 2.83746,2.45327 5.9821,5.48152 l 5.71751,5.50589 -3.94671,6.41106 -3.9467,6.41106 0.91156,2.14496 c 0.50136,1.17973 0.99248,2.41298 1.09139,2.74056 0.23057,0.76365 0.63601,0.96352 3.05442,1.50574 1.0914,0.2447 4.2168,0.98325 6.94533,1.64122 l 4.96095,1.1963 v 12.09797 12.09797 l -6.41616,1.52972 c -3.5289,0.84135 -6.84365,1.63762 -7.36613,1.76951 -0.80374,0.20286 -0.99868,0.40238 -1.2665,1.29629 -0.1741,0.58109 -0.66855,1.84109 -1.09879,2.80002 -0.64194,1.43076 -0.72863,1.84369 -0.48327,2.30214 0.16444,0.30727 1.84424,3.06241 3.73289,6.12255 1.88865,3.06013 3.49699,5.72826 3.57409,5.92917 0.0878,0.22869 -3.01508,3.5217 -8.2972,8.80576 -4.64055,4.64225 -8.52801,8.44046 -8.63879,8.44046 -0.11079,0 -3.011821,-1.73111 -6.446741,-3.84691 l -6.24532,-3.84691 -2.86438,1.13492 -2.86439,1.13492 -1.49792,6.21773 c -0.82386,3.41975 -1.61956,6.72374 -1.76822,7.34221 l -0.2703,1.12448 H 68.40499 56.28673 l -0.40962,-1.78594 c -0.99576,-4.34143 -3.06195,-12.84058 -3.12993,-12.87478 -0.0411,-0.0207 -1.33922,-0.54712 -2.88467,-1.16987 l -2.80992,-1.13228 -6.26697,3.85122 c -3.44684,2.11816 -6.35027,3.85121 -6.45208,3.85121 -0.2729,0 -16.98309,-16.76355 -16.98309,-17.03732 0,-0.12825 1.68129,-2.96237 3.73619,-6.29806 2.05491,-3.33569 3.75155,-6.20665 3.77033,-6.37991 0.0256,-0.23622 -1.8174,-5.21548 -2.10459,-5.68602 C 22.69888,237.36454 8.60562,233.96257 8.28844,233.9608 8.1793,233.96027 8.09,228.49081 8.09,221.80664 c 0,-11.34845 0.0307,-12.16164 0.46302,-12.28294 0.25468,-0.0714 3.32054,-0.80103 6.81306,-1.6213 3.49251,-0.82028 6.56924,-1.55523 6.83719,-1.63323 0.26795,-0.078 0.66042,-0.57683 0.87217,-1.10851 0.21175,-0.53168 0.74469,-1.81144 1.18431,-2.84389 l 0.7993,-1.87721 -3.88676,-6.31002 c -2.61756,-4.24952 -3.81136,-6.41891 -3.65586,-6.64349 0.44198,-0.63832 10.5509,-11.42632 10.72759,-11.44823 0.0979,-0.0121 0.32287,0.42442 0.50002,0.97012 z"
         style="fill:url(#linearGradient890);fill-opacity:1;stroke-width:0.26458412" />
    </g>
  </g>
</svg>
