<?xml version="1.0" encoding="UTF-8" standalone="no"?>
<svg
   xmlns:dc="http://purl.org/dc/elements/1.1/"
   xmlns:cc="http://creativecommons.org/ns#"
   xmlns:rdf="http://www.w3.org/1999/02/22-rdf-syntax-ns#"
   xmlns:svg="http://www.w3.org/2000/svg"
   xmlns="http://www.w3.org/2000/svg"
   xmlns:sodipodi="http://sodipodi.sourceforge.net/DTD/sodipodi-0.dtd"
   xmlns:inkscape="http://www.inkscape.org/namespaces/inkscape"
   enable-background="new 0 0 24 24"
   height="512"
   viewBox="0 0 24 24"
   width="512"
   version="1.1"
   id="svg6"
   sodipodi:docname="tip-money-off.svg"
   inkscape:version="0.92.4 (5da689c313, 2019-01-14)">
  <metadata
     id="metadata12">
    <rdf:RDF>
      <cc:Work
         rdf:about="">
        <dc:format>image/svg+xml</dc:format>
        <dc:type
           rdf:resource="http://purl.org/dc/dcmitype/StillImage" />
      </cc:Work>
    </rdf:RDF>
  </metadata>
  <defs
     id="defs10" />
  <sodipodi:namedview
     pagecolor="#ffffff"
     bordercolor="#666666"
     borderopacity="1"
     objecttolerance="10"
     gridtolerance="10"
     guidetolerance="10"
     inkscape:pageopacity="0"
     inkscape:pageshadow="2"
     inkscape:window-width="1920"
     inkscape:window-height="1137"
     id="namedview8"
     showgrid="false"
     inkscape:zoom="0.92187498"
     inkscape:cx="369.82163"
     inkscape:cy="120.12711"
     inkscape:window-x="1912"
     inkscape:window-y="-8"
     inkscape:window-maximized="1"
     inkscape:current-layer="svg6" />
  <path
     d="m7.992 4.5h8.016l1.73-1.384c.589-.47.809-1.233.56-1.945s-.896-1.171-1.648-1.171h-9.3c-.752 0-1.399.46-1.648 1.171s-.029 1.475.559 1.944z"
     id="path2"
     style="fill:#232b43;fill-opacity:1" />
  <path
     style="fill:#232b43;fill-opacity:1;stroke-width:21.33333397"
     d="M 167.57422 128 C 109.31289 185.19467 64 285.54667 64 368 C 64 380.40961 65.139754 392.83886 67.460938 404.91016 L 240 232.36914 L 240 229.33398 C 240 220.50198 247.168 213.33398 256 213.33398 C 256.94984 213.33398 257.8748 213.43088 258.7793 213.58984 L 344.36914 128 L 167.57422 128 z M 394.54492 192.87891 L 280.38281 307.04102 C 297.29982 313.59084 309.33398 330.0249 309.33398 349.22656 C 309.33398 371.6479 293.16267 390.1008 272 393.85547 L 272 410.64453 C 272 419.47653 264.832 426.64453 256 426.64453 C 247.168 426.64453 240 419.47653 240 410.64453 L 240 394.66602 L 218.66602 394.66602 C 211.65882 394.66602 205.71438 390.14829 203.55078 383.87305 L 106.16602 481.25977 C 125.71835 500.13547 152.35302 512 186.66602 512 L 330.66602 512 C 403.05002 512 448 456.81067 448 368 C 448 311.47976 426.70384 246.55379 394.54492 192.87891 z M 251.42578 336 L 224.75977 362.66602 L 264.10742 362.66602 C 271.40342 362.66602 277.33398 356.73545 277.33398 349.43945 C 277.33398 341.93012 271.40342 336 264.10742 336 L 251.42578 336 z "
     transform="scale(0.046875)"
     id="path4" />
  <path
     style="fill:#e7ffff;fill-opacity:1;stroke:#232b43;stroke-width:2.55914068;stroke-linecap:round;stroke-linejoin:miter;stroke-miterlimit:4;stroke-dasharray:none;stroke-opacity:1"
     d="M 2.5990734,22.149049 19.533192,5.214969"
     id="path816-2"
     inkscape:connector-curvature="0"
     sodipodi:nodetypes="cc" />
</svg>
