<?xml version="1.0" encoding="UTF-8" standalone="no"?>
<svg
   xmlns:dc="http://purl.org/dc/elements/1.1/"
   xmlns:cc="http://creativecommons.org/ns#"
   xmlns:rdf="http://www.w3.org/1999/02/22-rdf-syntax-ns#"
   xmlns:svg="http://www.w3.org/2000/svg"
   xmlns="http://www.w3.org/2000/svg"
   xmlns:sodipodi="http://sodipodi.sourceforge.net/DTD/sodipodi-0.dtd"
   xmlns:inkscape="http://www.inkscape.org/namespaces/inkscape"
   enable-background="new 0 0 24 24"
   height="512"
   viewBox="0 0 24 24"
   width="512"
   version="1.1"
   id="svg6"
   sodipodi:docname="money-tag.svg"
   inkscape:version="0.92.4 (5da689c313, 2019-01-14)">
  <metadata
     id="metadata12">
    <rdf:RDF>
      <cc:Work
         rdf:about="">
        <dc:format>image/svg+xml</dc:format>
        <dc:type
           rdf:resource="http://purl.org/dc/dcmitype/StillImage" />
      </cc:Work>
    </rdf:RDF>
  </metadata>
  <defs
     id="defs10" />
  <sodipodi:namedview
     pagecolor="#ffffff"
     bordercolor="#666666"
     borderopacity="1"
     objecttolerance="10"
     gridtolerance="10"
     guidetolerance="10"
     inkscape:pageopacity="0"
     inkscape:pageshadow="2"
     inkscape:window-width="1920"
     inkscape:window-height="1017"
     id="namedview8"
     showgrid="false"
     inkscape:zoom="0.4609375"
     inkscape:cx="256"
     inkscape:cy="256"
     inkscape:window-x="-8"
     inkscape:window-y="-8"
     inkscape:window-maximized="1"
     inkscape:current-layer="svg6" />
  <path
     d="m7.992 4.5h8.016l1.73-1.384c.589-.47.809-1.233.56-1.945s-.896-1.171-1.648-1.171h-9.3c-.752 0-1.399.46-1.648 1.171s-.029 1.475.559 1.944z"
     id="path2"
     style="fill:#232b43;fill-opacity:1" />
  <path
     d="m16.145 6h-8.29c-2.731 2.681-4.855 7.385-4.855 11.25 0 3.359 1.778 6.75 5.75 6.75h6.75c3.393 0 5.5-2.587 5.5-6.75 0-3.865-2.124-8.569-4.855-11.25zm-4.525 8.25h.76c1.169 0 2.12.951 2.12 2.12 0 1.051-.758 1.916-1.75 2.092v.787c0 .414-.336.75-.75.75s-.75-.336-.75-.75v-.749h-1c-.414 0-.75-.336-.75-.75s.336-.75.75-.75h2.13c.342 0 .62-.278.62-.62 0-.352-.278-.63-.62-.63h-.76c-1.169 0-2.12-.951-2.12-2.12 0-1.051.758-1.916 1.75-2.092v-.788c0-.414.336-.75.75-.75s.75.336.75.75v.75h1c.414 0 .75.336.75.75s-.336.75-.75.75h-2.13c-.342 0-.62.278-.62.62 0 .352.278.63.62.63z"
     id="path4"
     style="fill:#232b43;fill-opacity:1" />
</svg>
