<?xml version="1.0" encoding="UTF-8" standalone="no"?>
<!-- Generator: Adobe Illustrator 19.0.0, SVG Export Plug-In . SVG Version: 6.00 Build 0)  -->

<svg
   xmlns:dc="http://purl.org/dc/elements/1.1/"
   xmlns:cc="http://creativecommons.org/ns#"
   xmlns:rdf="http://www.w3.org/1999/02/22-rdf-syntax-ns#"
   xmlns:svg="http://www.w3.org/2000/svg"
   xmlns="http://www.w3.org/2000/svg"
   xmlns:sodipodi="http://sodipodi.sourceforge.net/DTD/sodipodi-0.dtd"
   xmlns:inkscape="http://www.inkscape.org/namespaces/inkscape"
   version="1.1"
   id="Capa_1"
   x="0px"
   y="0px"
   viewBox="0 0 487.85 369.99999"
   xml:space="preserve"
   sodipodi:docname="view-eye.svg"
   inkscape:version="0.92.4 (5da689c313, 2019-01-14)"
   width="487.85001"
   height="370"><metadata
   id="metadata45"><rdf:RDF><cc:Work
       rdf:about=""><dc:format>image/svg+xml</dc:format><dc:type
         rdf:resource="http://purl.org/dc/dcmitype/StillImage" /><dc:title></dc:title></cc:Work></rdf:RDF></metadata><defs
   id="defs43" /><sodipodi:namedview
   pagecolor="#ffffff"
   bordercolor="#666666"
   borderopacity="1"
   objecttolerance="10"
   gridtolerance="10"
   guidetolerance="10"
   inkscape:pageopacity="0"
   inkscape:pageshadow="2"
   inkscape:window-width="1920"
   inkscape:window-height="1017"
   id="namedview41"
   showgrid="false"
   inkscape:zoom="0.48375525"
   inkscape:cx="-207.74969"
   inkscape:cy="243.925"
   inkscape:window-x="-8"
   inkscape:window-y="-8"
   inkscape:window-maximized="1"
   inkscape:current-layer="Capa_1" />
<g
   id="g8"
   style="fill:#232b43;fill-opacity:1"
   transform="translate(0,-59.325)">
	<g
   id="g6"
   style="fill:#232b43;fill-opacity:1">
		<path
   d="m 243.925,98.525 c -93.2,0 -177.7,50.9 -240.1,133.8 -5.1,6.8 -5.1,16.2 0,23 62.4,83 146.9,134 240.1,134 93.2,0 177.7,-50.9 240.1,-133.8 5.1,-6.8 5.1,-16.2 0,-23 -62.4,-83 -146.9,-134 -240.1,-134 z m 6.7,247.8 c -61.9,3.9 -112.9,-47.1 -109,-109 3.2,-51 44.6,-92.5 95.7,-95.7 61.9,-3.9 112.9,47.1 109,109 -3.3,51 -44.7,92.4 -95.7,95.7 z"
   id="path2"
   style="fill:#232b43;fill-opacity:1"
   inkscape:connector-curvature="0" />
		<path
   d="m 247.525,299.025 c -33.3,2.1 -60.8,-25.4 -58.7,-58.7 1.7,-27.5 24,-49.8 51.5,-51.5 33.3,-2.1 60.8,25.4 58.7,58.7 -1.7,27.5 -24,49.8 -51.5,51.5 z"
   id="path4"
   style="fill:#232b43;fill-opacity:1"
   inkscape:connector-curvature="0" />
	</g>
</g>
<g
   id="g10"
   style="fill:#232b43;fill-opacity:1"
   transform="translate(0,-117.85)">
</g>
<g
   id="g12"
   style="fill:#232b43;fill-opacity:1"
   transform="translate(0,-117.85)">
</g>
<g
   id="g14"
   style="fill:#232b43;fill-opacity:1"
   transform="translate(0,-117.85)">
</g>
<g
   id="g16"
   style="fill:#232b43;fill-opacity:1"
   transform="translate(0,-117.85)">
</g>
<g
   id="g18"
   style="fill:#232b43;fill-opacity:1"
   transform="translate(0,-117.85)">
</g>
<g
   id="g20"
   style="fill:#232b43;fill-opacity:1"
   transform="translate(0,-117.85)">
</g>
<g
   id="g22"
   style="fill:#232b43;fill-opacity:1"
   transform="translate(0,-117.85)">
</g>
<g
   id="g24"
   style="fill:#232b43;fill-opacity:1"
   transform="translate(0,-117.85)">
</g>
<g
   id="g26"
   style="fill:#232b43;fill-opacity:1"
   transform="translate(0,-117.85)">
</g>
<g
   id="g28"
   style="fill:#232b43;fill-opacity:1"
   transform="translate(0,-117.85)">
</g>
<g
   id="g30"
   style="fill:#232b43;fill-opacity:1"
   transform="translate(0,-117.85)">
</g>
<g
   id="g32"
   style="fill:#232b43;fill-opacity:1"
   transform="translate(0,-117.85)">
</g>
<g
   id="g34"
   style="fill:#232b43;fill-opacity:1"
   transform="translate(0,-117.85)">
</g>
<g
   id="g36"
   style="fill:#232b43;fill-opacity:1"
   transform="translate(0,-117.85)">
</g>
<g
   id="g38"
   style="fill:#232b43;fill-opacity:1"
   transform="translate(0,-117.85)">
</g>
</svg>