<?xml version="1.0" encoding="UTF-8" standalone="no"?>
<!-- Created with Inkscape (http://www.inkscape.org/) -->

<svg
   xmlns:dc="http://purl.org/dc/elements/1.1/"
   xmlns:cc="http://creativecommons.org/ns#"
   xmlns:rdf="http://www.w3.org/1999/02/22-rdf-syntax-ns#"
   xmlns:svg="http://www.w3.org/2000/svg"
   xmlns="http://www.w3.org/2000/svg"
   xmlns:sodipodi="http://sodipodi.sourceforge.net/DTD/sodipodi-0.dtd"
   xmlns:inkscape="http://www.inkscape.org/namespaces/inkscape"
   width="200"
   height="200"
   viewBox="0 0 52.916665 52.916668"
   version="1.1"
   id="svg8"
   inkscape:version="0.92.4 (5da689c313, 2019-01-14)"
   sodipodi:docname="view-eye.svg">
  <defs
     id="defs2">
    <inkscape:path-effect
       effect="spiro"
       id="path-effect825"
       is_visible="true" />
    <inkscape:path-effect
       effect="spiro"
       id="path-effect821"
       is_visible="true" />
  </defs>
  <sodipodi:namedview
     id="base"
     pagecolor="#ffffff"
     bordercolor="#666666"
     borderopacity="1.0"
     inkscape:pageopacity="0.0"
     inkscape:pageshadow="2"
     inkscape:zoom="1.4142136"
     inkscape:cx="91.569734"
     inkscape:cy="71.968615"
     inkscape:document-units="mm"
     inkscape:current-layer="g839"
     showgrid="false"
     units="px"
     inkscape:window-width="1920"
     inkscape:window-height="1001"
     inkscape:window-x="-9"
     inkscape:window-y="-9"
     inkscape:window-maximized="1" />
  <metadata
     id="metadata5">
    <rdf:RDF>
      <cc:Work
         rdf:about="">
        <dc:format>image/svg+xml</dc:format>
        <dc:type
           rdf:resource="http://purl.org/dc/dcmitype/StillImage" />
        <dc:title></dc:title>
      </cc:Work>
    </rdf:RDF>
  </metadata>
  <g
     inkscape:label="Ebene 1"
     inkscape:groupmode="layer"
     id="layer1"
     transform="translate(0,-244.08332)">
    <g
       id="g839"
       transform="matrix(0.99997791,0,0,1.0000018,1.4434477e-5,-18.521354)">
      <g
         id="g955"
         transform="matrix(1,0,0,0.9806026,0,-3.8015704)">
        <g
           style="fill:#232b43;fill-opacity:1;stroke:none;stroke-opacity:1"
           transform="matrix(0.10335545,0,0,0.10335298,-1.4434796e-5,272.19892)"
           id="g845">
	<g
   style="fill:#232b43;fill-opacity:1;stroke:none;stroke-opacity:1"
   id="g843">
		<path
   style="fill:#232b43;fill-opacity:1;stroke:none;stroke-opacity:1"
   sodipodi:nodetypes="csccsccscscs"
   id="path841"
   d="M 508.745,246.041 C 504.171,239.784 395.188,92.835 255.997,92.835 c -139.191,0 -248.179,146.949 -252.748,153.2 -4.332,5.936 -4.332,13.987 0,19.923 4.569,6.257 113.557,153.206 252.748,153.206 139.191,0 248.174,-146.95 252.748,-153.201 4.338,-5.935 4.338,-13.992 0,-19.922 z M 255.997,371.82959 C 153.468,371.82959 64.667,287.873 38.38,255.988 64.633,224.075 152.6015,135.64394 255.3505,135.64394 c 102.524,0 191.9655,88.46506 218.2635,120.36706 -26.253,31.912 -114.868,115.81859 -217.617,115.81859 z"
   inkscape:connector-curvature="0" />

	</g>

</g>
        <g
           style="fill:#232b43;fill-opacity:1;stroke:none;stroke-opacity:1"
           transform="matrix(0.10335545,0,0,0.10335298,-1.4434796e-5,272.19892)"
           id="g851">
	<g
   style="fill:#232b43;fill-opacity:1;stroke:none;stroke-opacity:1"
   id="g849">
		<path
   style="fill:#232b43;fill-opacity:1;stroke:none;stroke-opacity:1"
   id="path847"
   d="m 255.997,154.725 c -55.842,0 -101.275,45.433 -101.275,101.275 0,55.842 45.433,101.275 101.275,101.275 55.842,0 101.275,-45.433 101.275,-101.275 0,-55.842 -45.433,-101.275 -101.275,-101.275 z m 0,168.791 c -37.23,0 -67.516,-30.287 -67.516,-67.516 0,-37.229 30.287,-67.516 67.516,-67.516 37.229,0 67.516,30.287 67.516,67.516 0,37.229 -30.286,67.516 -67.516,67.516 z"
   inkscape:connector-curvature="0" />

	</g>

</g>
        <g
           style="fill:#232b43;fill-opacity:1;stroke:none;stroke-opacity:1"
           transform="matrix(0.10335545,0,0,0.10335298,-1.4434796e-5,272.19892)"
           id="g853">
</g>
        <g
           style="fill:#232b43;fill-opacity:1;stroke:none;stroke-opacity:1"
           transform="matrix(0.10335545,0,0,0.10335298,-1.4434796e-5,272.19892)"
           id="g855">
</g>
        <g
           style="fill:#232b43;fill-opacity:1;stroke:none;stroke-opacity:1"
           transform="matrix(0.10335545,0,0,0.10335298,-1.4434796e-5,272.19892)"
           id="g857">
</g>
        <g
           style="fill:#232b43;fill-opacity:1;stroke:none;stroke-opacity:1"
           transform="matrix(0.10335545,0,0,0.10335298,-1.4434796e-5,272.19892)"
           id="g859">
</g>
        <g
           style="fill:#232b43;fill-opacity:1;stroke:none;stroke-opacity:1"
           transform="matrix(0.10335545,0,0,0.10335298,-1.4434796e-5,272.19892)"
           id="g861">
</g>
        <g
           style="fill:#232b43;fill-opacity:1;stroke:none;stroke-opacity:1"
           transform="matrix(0.10335545,0,0,0.10335298,-1.4434796e-5,272.19892)"
           id="g863">
</g>
        <g
           style="fill:#232b43;fill-opacity:1;stroke:none;stroke-opacity:1"
           transform="matrix(0.10335545,0,0,0.10335298,-1.4434796e-5,272.19892)"
           id="g865">
</g>
        <g
           style="fill:#232b43;fill-opacity:1;stroke:none;stroke-opacity:1"
           transform="matrix(0.10335545,0,0,0.10335298,-1.4434796e-5,272.19892)"
           id="g867">
</g>
        <g
           style="fill:#232b43;fill-opacity:1;stroke:none;stroke-opacity:1"
           transform="matrix(0.10335545,0,0,0.10335298,-1.4434796e-5,272.19892)"
           id="g869">
</g>
        <g
           style="fill:#232b43;fill-opacity:1;stroke:none;stroke-opacity:1"
           transform="matrix(0.10335545,0,0,0.10335298,-1.4434796e-5,272.19892)"
           id="g871">
</g>
        <g
           style="fill:#232b43;fill-opacity:1;stroke:none;stroke-opacity:1"
           transform="matrix(0.10335545,0,0,0.10335298,-1.4434796e-5,272.19892)"
           id="g873">
</g>
        <g
           style="fill:#232b43;fill-opacity:1;stroke:none;stroke-opacity:1"
           transform="matrix(0.10335545,0,0,0.10335298,-1.4434796e-5,272.19892)"
           id="g875">
</g>
        <g
           style="fill:#232b43;fill-opacity:1;stroke:none;stroke-opacity:1"
           transform="matrix(0.10335545,0,0,0.10335298,-1.4434796e-5,272.19892)"
           id="g877">
</g>
        <g
           style="fill:#232b43;fill-opacity:1;stroke:none;stroke-opacity:1"
           transform="matrix(0.10335545,0,0,0.10335298,-1.4434796e-5,272.19892)"
           id="g879">
</g>
        <g
           style="fill:#232b43;fill-opacity:1;stroke:none;stroke-opacity:1"
           transform="matrix(0.10335545,0,0,0.10335298,-1.4434796e-5,272.19892)"
           id="g881">
</g>
      </g>
    </g>
  </g>
</svg>
