<?xml version="1.0" encoding="UTF-8" standalone="no"?>
<!-- Generator: Adobe Illustrator 16.0.0, SVG Export Plug-In . SVG Version: 6.00 Build 0)  -->

<svg
   xmlns:dc="http://purl.org/dc/elements/1.1/"
   xmlns:cc="http://creativecommons.org/ns#"
   xmlns:rdf="http://www.w3.org/1999/02/22-rdf-syntax-ns#"
   xmlns:svg="http://www.w3.org/2000/svg"
   xmlns="http://www.w3.org/2000/svg"
   xmlns:sodipodi="http://sodipodi.sourceforge.net/DTD/sodipodi-0.dtd"
   xmlns:inkscape="http://www.inkscape.org/namespaces/inkscape"
   version="1.1"
   id="Capa_1"
   x="0px"
   y="0px"
   width="932.15px"
   height="932.15px"
   viewBox="0 0 932.15 932.15"
   style="enable-background:new 0 0 932.15 932.15;"
   xml:space="preserve"
   sodipodi:docname="visibility-on.svg"
   inkscape:version="0.92.4 (5da689c313, 2019-01-14)"><metadata
   id="metadata43"><rdf:RDF><cc:Work
       rdf:about=""><dc:format>image/svg+xml</dc:format><dc:type
         rdf:resource="http://purl.org/dc/dcmitype/StillImage" /></cc:Work></rdf:RDF></metadata><defs
   id="defs41" /><sodipodi:namedview
   pagecolor="#ffffff"
   bordercolor="#666666"
   borderopacity="1"
   objecttolerance="10"
   gridtolerance="10"
   guidetolerance="10"
   inkscape:pageopacity="0"
   inkscape:pageshadow="2"
   inkscape:window-width="1920"
   inkscape:window-height="1017"
   id="namedview39"
   showgrid="false"
   inkscape:zoom="0.71609589"
   inkscape:cx="584.50744"
   inkscape:cy="91.776091"
   inkscape:window-x="-8"
   inkscape:window-y="-8"
   inkscape:window-maximized="1"
   inkscape:current-layer="g6" />
<g
   id="g6">
	<path
   d="M 466.07422 161.52539 C 260.47422 161.52539 83.275 282.725 1.875 457.625 C -0.625 462.925 -0.625 469.12539 1.875 474.52539 C 83.275 649.42439 260.47522 770.625 466.07422 770.625 C 671.67322 770.625 848.87539 649.42539 930.27539 474.52539 C 932.77539 469.22539 932.77539 463.025 930.27539 457.625 C 848.87539 282.725 671.67422 161.52539 466.07422 161.52539 z M 466.07422 256.02539 C 582.17422 256.02539 676.17578 350.125 676.17578 466.125 C 676.17578 582.125 582.07422 676.22656 466.07422 676.22656 C 349.97422 676.22656 255.97461 582.125 255.97461 466.125 C 255.97461 439.33499 260.99521 413.72701 270.12891 390.17383 A 67.469872 67.469872 0 0 1 267.68164 372.16992 A 67.469872 67.469872 0 0 1 331.43945 304.83203 C 367.90549 274.3635 414.85018 256.02539 466.07422 256.02539 z "
   id="path2"
   style="fill:#232b43;fill-opacity:1" />
	<path
   d="M 466.07422 331.52539 A 134.5 134.5 0 0 0 398.72461 349.79492 A 67.469872 67.469872 0 0 1 402.62109 372.16992 A 67.469872 67.469872 0 0 1 335.15039 439.63867 A 67.469872 67.469872 0 0 1 334.21289 439.5918 A 134.5 134.5 0 0 0 331.57422 466.02539 A 134.5 134.5 0 0 0 466.07422 600.52539 A 134.5 134.5 0 0 0 600.57422 466.02539 A 134.5 134.5 0 0 0 466.07422 331.52539 z "
   id="circle4"
   style="fill:#232b43;fill-opacity:1" />
</g>
<g
   id="g8">
</g>
<g
   id="g10">
</g>
<g
   id="g12">
</g>
<g
   id="g14">
</g>
<g
   id="g16">
</g>
<g
   id="g18">
</g>
<g
   id="g20">
</g>
<g
   id="g22">
</g>
<g
   id="g24">
</g>
<g
   id="g26">
</g>
<g
   id="g28">
</g>
<g
   id="g30">
</g>
<g
   id="g32">
</g>
<g
   id="g34">
</g>
<g
   id="g36">
</g>
</svg>