<?xml version="1.0" encoding="UTF-8" standalone="no"?>
<!-- Generator: Adobe Illustrator 18.0.0, SVG Export Plug-In . SVG Version: 6.00 Build 0)  -->

<svg
   xmlns:dc="http://purl.org/dc/elements/1.1/"
   xmlns:cc="http://creativecommons.org/ns#"
   xmlns:rdf="http://www.w3.org/1999/02/22-rdf-syntax-ns#"
   xmlns:svg="http://www.w3.org/2000/svg"
   xmlns="http://www.w3.org/2000/svg"
   xmlns:sodipodi="http://sodipodi.sourceforge.net/DTD/sodipodi-0.dtd"
   xmlns:inkscape="http://www.inkscape.org/namespaces/inkscape"
   version="1.1"
   id="Capa_1"
   x="0px"
   y="0px"
   viewBox="0 0 219.151 219.151"
   style="enable-background:new 0 0 219.151 219.151;"
   xml:space="preserve"
   sodipodi:docname="page-next.svg"
   inkscape:version="0.92.4 (5da689c313, 2019-01-14)"><metadata
   id="metadata43"><rdf:RDF><cc:Work
       rdf:about=""><dc:format>image/svg+xml</dc:format><dc:type
         rdf:resource="http://purl.org/dc/dcmitype/StillImage" /></cc:Work></rdf:RDF></metadata><defs
   id="defs41" /><sodipodi:namedview
   pagecolor="#ffffff"
   bordercolor="#666666"
   borderopacity="1"
   objecttolerance="10"
   gridtolerance="10"
   guidetolerance="10"
   inkscape:pageopacity="0"
   inkscape:pageshadow="2"
   inkscape:window-width="1920"
   inkscape:window-height="1137"
   id="namedview39"
   showgrid="false"
   inkscape:zoom="1.0768831"
   inkscape:cx="-93.324893"
   inkscape:cy="109.5755"
   inkscape:window-x="1912"
   inkscape:window-y="-8"
   inkscape:window-maximized="1"
   inkscape:current-layer="Capa_1" />
<g
   id="g6"
   style="fill:#232b43;fill-opacity:1"
   transform="matrix(-1,0,0,1,219.151,0)">
	<path
   d="m 109.576,219.151 c 60.419,0 109.573,-49.156 109.573,-109.576 C 219.149,49.156 169.995,0 109.576,0 49.157,0 0.002,49.156 0.002,109.575 c 0,60.42 49.155,109.576 109.574,109.576 z m 0,-204.151 c 52.148,0 94.573,42.426 94.574,94.575 0,52.149 -42.425,94.575 -94.574,94.576 C 57.428,204.15 15.003,161.724 15.003,109.574 15.003,57.427 57.428,15 109.576,15 Z"
   id="path2"
   style="fill:#232b43;fill-opacity:1"
   inkscape:connector-curvature="0" />
	<path
   d="m 94.861,156.507 c 2.929,2.928 7.678,2.927 10.606,0 2.93,-2.93 2.93,-7.678 -0.001,-10.608 l -28.82,-28.819 83.457,-0.008 c 4.142,-0.001 7.499,-3.358 7.499,-7.502 -0.001,-4.142 -3.358,-7.498 -7.5,-7.498 l -83.46,0.008 28.827,-28.825 c 2.929,-2.929 2.929,-7.679 0,-10.607 -1.465,-1.464 -3.384,-2.197 -5.304,-2.197 -1.919,0 -3.838,0.733 -5.303,2.196 l -41.629,41.628 c -1.407,1.406 -2.197,3.313 -2.197,5.303 10e-4,1.99 0.791,3.896 2.198,5.305 z"
   id="path4"
   style="fill:#232b43;fill-opacity:1"
   inkscape:connector-curvature="0" />
</g>
<g
   id="g8">
</g>
<g
   id="g10">
</g>
<g
   id="g12">
</g>
<g
   id="g14">
</g>
<g
   id="g16">
</g>
<g
   id="g18">
</g>
<g
   id="g20">
</g>
<g
   id="g22">
</g>
<g
   id="g24">
</g>
<g
   id="g26">
</g>
<g
   id="g28">
</g>
<g
   id="g30">
</g>
<g
   id="g32">
</g>
<g
   id="g34">
</g>
<g
   id="g36">
</g>
</svg>